%TF.GenerationSoftware,KiCad,Pcbnew,9.0.5*%
%TF.CreationDate,2025-10-09T15:15:47-05:00*%
%TF.ProjectId,arcade-controller,61726361-6465-42d6-936f-6e74726f6c6c,rev?*%
%TF.SameCoordinates,Original*%
%TF.FileFunction,Copper,L1,Top*%
%TF.FilePolarity,Positive*%
%FSLAX46Y46*%
G04 Gerber Fmt 4.6, Leading zero omitted, Abs format (unit mm)*
G04 Created by KiCad (PCBNEW 9.0.5) date 2025-10-09 15:15:47*
%MOMM*%
%LPD*%
G01*
G04 APERTURE LIST*
%TA.AperFunction,ComponentPad*%
%ADD10C,2.200000*%
%TD*%
%TA.AperFunction,ComponentPad*%
%ADD11R,1.600000X1.600000*%
%TD*%
%TA.AperFunction,ComponentPad*%
%ADD12O,1.600000X1.600000*%
%TD*%
%TA.AperFunction,ComponentPad*%
%ADD13R,1.700000X1.700000*%
%TD*%
%TA.AperFunction,ComponentPad*%
%ADD14C,1.700000*%
%TD*%
%TA.AperFunction,Conductor*%
%ADD15C,0.200000*%
%TD*%
G04 APERTURE END LIST*
D10*
%TO.P,SW1,2,2*%
%TO.N,Net-(U1-D21{slash}A3)*%
X205650000Y-60540000D03*
%TO.P,SW1,1,1*%
%TO.N,GND*%
X212000000Y-58000000D03*
%TD*%
%TO.P,SW2,2,2*%
%TO.N,Net-(U1-D20{slash}A2)*%
X182650000Y-60540000D03*
%TO.P,SW2,1,1*%
%TO.N,GND*%
X189000000Y-58000000D03*
%TD*%
%TO.P,SW3,2,2*%
%TO.N,Net-(U1-D19{slash}A1)*%
X160150000Y-67040000D03*
%TO.P,SW3,1,1*%
%TO.N,GND*%
X166500000Y-64500000D03*
%TD*%
%TO.P,SW4,2,2*%
%TO.N,Net-(U1-D18{slash}A0)*%
X206110000Y-85960000D03*
%TO.P,SW4,1,1*%
%TO.N,GND*%
X212460000Y-83420000D03*
%TD*%
%TO.P,SW5,2,2*%
%TO.N,Net-(U1-D15)*%
X183150000Y-86040000D03*
%TO.P,SW5,1,1*%
%TO.N,GND*%
X189500000Y-83500000D03*
%TD*%
%TO.P,SW6,2,2*%
%TO.N,Net-(U1-D14)*%
X160110000Y-90960000D03*
%TO.P,SW6,1,1*%
%TO.N,GND*%
X166460000Y-88420000D03*
%TD*%
%TO.P,SW7,2,2*%
%TO.N,Net-(U1-D16)*%
X112150000Y-108540000D03*
%TO.P,SW7,1,1*%
%TO.N,GND*%
X118500000Y-106000000D03*
%TD*%
%TO.P,SW8,2,2*%
%TO.N,Net-(U1-~D10{slash}A10)*%
X136650000Y-108540000D03*
%TO.P,SW8,1,1*%
%TO.N,GND*%
X143000000Y-106000000D03*
%TD*%
D11*
%TO.P,U1,1,D1/TX*%
%TO.N,unconnected-(U1-D1{slash}TX-Pad1)*%
X122880000Y-41070000D03*
D12*
%TO.P,U1,2,D0/RX*%
%TO.N,unconnected-(U1-D0{slash}RX-Pad2)*%
X122880000Y-43610000D03*
%TO.P,U1,3,GND*%
%TO.N,unconnected-(U1-GND-Pad3)*%
X122880000Y-46150000D03*
%TO.P,U1,4,GND*%
%TO.N,unconnected-(U1-GND-Pad4)*%
X122880000Y-48690000D03*
%TO.P,U1,5,D2*%
%TO.N,Net-(J1-Pin_4)*%
X122880000Y-51230000D03*
%TO.P,U1,6,~D3*%
%TO.N,Net-(J1-Pin_3)*%
X122880000Y-53770000D03*
%TO.P,U1,7,D4/A6*%
%TO.N,Net-(J1-Pin_2)*%
X122880000Y-56310000D03*
%TO.P,U1,8,~D5*%
%TO.N,Net-(J1-Pin_1)*%
X122880000Y-58850000D03*
%TO.P,U1,9,~D6/A7*%
%TO.N,unconnected-(U1-~D6{slash}A7-Pad9)*%
X122880000Y-61390000D03*
%TO.P,U1,10,D7*%
%TO.N,unconnected-(U1-D7-Pad10)*%
X122880000Y-63930000D03*
%TO.P,U1,11,D8/A8*%
%TO.N,unconnected-(U1-D8{slash}A8-Pad11)*%
X122880000Y-66470000D03*
%TO.P,U1,12,~D9/A9*%
%TO.N,unconnected-(U1-~D9{slash}A9-Pad12)*%
X122880000Y-69010000D03*
%TO.P,U1,13,~D10/A10*%
%TO.N,Net-(U1-~D10{slash}A10)*%
X138120000Y-69010000D03*
%TO.P,U1,14,D16*%
%TO.N,Net-(U1-D16)*%
X138120000Y-66470000D03*
%TO.P,U1,15,D14*%
%TO.N,Net-(U1-D14)*%
X138120000Y-63930000D03*
%TO.P,U1,16,D15*%
%TO.N,Net-(U1-D15)*%
X138120000Y-61390000D03*
%TO.P,U1,17,D18/A0*%
%TO.N,Net-(U1-D18{slash}A0)*%
X138120000Y-58850000D03*
%TO.P,U1,18,D19/A1*%
%TO.N,Net-(U1-D19{slash}A1)*%
X138120000Y-56310000D03*
%TO.P,U1,19,D20/A2*%
%TO.N,Net-(U1-D20{slash}A2)*%
X138120000Y-53770000D03*
%TO.P,U1,20,D21/A3*%
%TO.N,Net-(U1-D21{slash}A3)*%
X138120000Y-51230000D03*
%TO.P,U1,21,VCC*%
%TO.N,unconnected-(U1-VCC-Pad21)*%
X138120000Y-48690000D03*
%TO.P,U1,22,RST*%
%TO.N,unconnected-(U1-RST-Pad22)*%
X138120000Y-46150000D03*
%TO.P,U1,23,GND*%
%TO.N,GND*%
X138120000Y-43610000D03*
%TO.P,U1,24,RAW*%
%TO.N,unconnected-(U1-RAW-Pad24)*%
X138120000Y-41070000D03*
%TD*%
D13*
%TO.P,J1,1,Pin_1*%
%TO.N,Net-(J1-Pin_1)*%
X112500000Y-58580000D03*
D14*
%TO.P,J1,2,Pin_2*%
%TO.N,Net-(J1-Pin_2)*%
X112500000Y-56040000D03*
%TO.P,J1,3,Pin_3*%
%TO.N,Net-(J1-Pin_3)*%
X112500000Y-53500000D03*
%TO.P,J1,4,Pin_4*%
%TO.N,Net-(J1-Pin_4)*%
X112500000Y-50960000D03*
%TO.P,J1,5,Pin_5*%
%TO.N,GND*%
X112500000Y-48420000D03*
%TD*%
D15*
%TO.N,Net-(J1-Pin_1)*%
X112500000Y-58580000D02*
X122610000Y-58580000D01*
X122610000Y-58580000D02*
X122880000Y-58850000D01*
%TO.N,Net-(J1-Pin_2)*%
X122610000Y-56040000D02*
X122880000Y-56310000D01*
X112500000Y-56040000D02*
X122610000Y-56040000D01*
%TO.N,Net-(J1-Pin_3)*%
X112500000Y-53500000D02*
X122610000Y-53500000D01*
X122610000Y-53500000D02*
X122880000Y-53770000D01*
%TO.N,Net-(J1-Pin_4)*%
X122610000Y-50960000D02*
X122880000Y-51230000D01*
X112500000Y-50960000D02*
X122610000Y-50960000D01*
%TO.N,Net-(U1-D21{slash}A3)*%
X138120000Y-51230000D02*
X196340000Y-51230000D01*
X196340000Y-51230000D02*
X205650000Y-60540000D01*
%TO.N,Net-(U1-D20{slash}A2)*%
X182650000Y-60540000D02*
X144890000Y-60540000D01*
X144890000Y-60540000D02*
X138120000Y-53770000D01*
%TO.N,Net-(U1-D19{slash}A1)*%
X160150000Y-67040000D02*
X148850000Y-67040000D01*
X148850000Y-67040000D02*
X138120000Y-56310000D01*
%TO.N,Net-(U1-D18{slash}A0)*%
X206110000Y-85960000D02*
X185051314Y-85960000D01*
X163909000Y-84639000D02*
X138120000Y-58850000D01*
X185051314Y-85960000D02*
X183730314Y-84639000D01*
X183730314Y-84639000D02*
X163909000Y-84639000D01*
%TO.N,Net-(U1-D15)*%
X183150000Y-86040000D02*
X162770000Y-86040000D01*
X162770000Y-86040000D02*
X138120000Y-61390000D01*
%TO.N,Net-(U1-D14)*%
X160110000Y-85920000D02*
X138120000Y-63930000D01*
X160110000Y-90960000D02*
X160110000Y-85920000D01*
%TO.N,Net-(U1-D16)*%
X138120000Y-66470000D02*
X112150000Y-92440000D01*
X112150000Y-92440000D02*
X112150000Y-108540000D01*
%TO.N,Net-(U1-~D10{slash}A10)*%
X136650000Y-70480000D02*
X138120000Y-69010000D01*
X136650000Y-108540000D02*
X136650000Y-70480000D01*
%TD*%
M02*
