M48
; DRILL file {KiCad 9.0.5} date 2025-10-09T15:15:55-0500
; FORMAT={-:-/ absolute / metric / decimal}
; #@! TF.CreationDate,2025-10-09T15:15:55-05:00
; #@! TF.GenerationSoftware,Kicad,Pcbnew,9.0.5
; #@! TF.FileFunction,NonPlated,1,2,NPTH
FMAT,2
METRIC
; #@! TA.AperFunction,NonPlated,NPTH,ComponentDrill
T1C1.700
; #@! TA.AperFunction,NonPlated,NPTH,ComponentDrill
T2C3.200
; #@! TA.AperFunction,NonPlated,NPTH,ComponentDrill
T3C4.000
%
G90
G05
T1
X110.88Y-111.08
X121.04Y-111.08
X135.38Y-111.08
X145.54Y-111.08
X158.84Y-93.5
X158.88Y-69.58
X169.0Y-93.5
X169.04Y-69.58
X181.38Y-63.08
X181.88Y-88.58
X191.54Y-63.08
X192.04Y-88.58
X204.38Y-63.08
X204.84Y-88.5
X214.54Y-63.08
X215.0Y-88.5
T2
X99.0Y-43.5
X99.0Y-118.65
X219.5Y-43.5
X219.5Y-118.65
T3
X115.96Y-111.08
X140.46Y-111.08
X163.92Y-93.5
X163.96Y-69.58
X186.46Y-63.08
X186.96Y-88.58
X209.46Y-63.08
X209.92Y-88.5
M30
