%TF.GenerationSoftware,KiCad,Pcbnew,9.0.5*%
%TF.CreationDate,2025-10-09T15:15:55-05:00*%
%TF.ProjectId,arcade-controller,61726361-6465-42d6-936f-6e74726f6c6c,rev?*%
%TF.SameCoordinates,Original*%
%TF.FileFunction,Drillmap*%
%TF.FilePolarity,Positive*%
%FSLAX45Y45*%
G04 Gerber Fmt 4.5, Leading zero omitted, Abs format (unit mm)*
G04 Created by KiCad (PCBNEW 9.0.5) date 2025-10-09 15:15:55*
%MOMM*%
%LPD*%
G01*
G04 APERTURE LIST*
%ADD10C,0.050000*%
%ADD11C,0.200000*%
%ADD12C,0.100000*%
%ADD13C,0.150000*%
G04 APERTURE END LIST*
D10*
X9000000Y-3500000D02*
X22750000Y-3500000D01*
X22750000Y-12850000D01*
X9000000Y-12850000D01*
X9000000Y-3500000D01*
D11*
D12*
X12248000Y-4067000D02*
X12328000Y-4147000D01*
X12328000Y-4067000D02*
X12248000Y-4147000D01*
X12248000Y-4321000D02*
X12328000Y-4401000D01*
X12328000Y-4321000D02*
X12248000Y-4401000D01*
X12248000Y-4575000D02*
X12328000Y-4655000D01*
X12328000Y-4575000D02*
X12248000Y-4655000D01*
X12248000Y-4829000D02*
X12328000Y-4909000D01*
X12328000Y-4829000D02*
X12248000Y-4909000D01*
X12248000Y-5083000D02*
X12328000Y-5163000D01*
X12328000Y-5083000D02*
X12248000Y-5163000D01*
X12248000Y-5337000D02*
X12328000Y-5417000D01*
X12328000Y-5337000D02*
X12248000Y-5417000D01*
X12248000Y-5591000D02*
X12328000Y-5671000D01*
X12328000Y-5591000D02*
X12248000Y-5671000D01*
X12248000Y-5845000D02*
X12328000Y-5925000D01*
X12328000Y-5845000D02*
X12248000Y-5925000D01*
X12248000Y-6099000D02*
X12328000Y-6179000D01*
X12328000Y-6099000D02*
X12248000Y-6179000D01*
X12248000Y-6353000D02*
X12328000Y-6433000D01*
X12328000Y-6353000D02*
X12248000Y-6433000D01*
X12248000Y-6607000D02*
X12328000Y-6687000D01*
X12328000Y-6607000D02*
X12248000Y-6687000D01*
X12248000Y-6861000D02*
X12328000Y-6941000D01*
X12328000Y-6861000D02*
X12248000Y-6941000D01*
X13772000Y-4067000D02*
X13852000Y-4147000D01*
X13852000Y-4067000D02*
X13772000Y-4147000D01*
X13772000Y-4321000D02*
X13852000Y-4401000D01*
X13852000Y-4321000D02*
X13772000Y-4401000D01*
X13772000Y-4575000D02*
X13852000Y-4655000D01*
X13852000Y-4575000D02*
X13772000Y-4655000D01*
X13772000Y-4829000D02*
X13852000Y-4909000D01*
X13852000Y-4829000D02*
X13772000Y-4909000D01*
X13772000Y-5083000D02*
X13852000Y-5163000D01*
X13852000Y-5083000D02*
X13772000Y-5163000D01*
X13772000Y-5337000D02*
X13852000Y-5417000D01*
X13852000Y-5337000D02*
X13772000Y-5417000D01*
X13772000Y-5591000D02*
X13852000Y-5671000D01*
X13852000Y-5591000D02*
X13772000Y-5671000D01*
X13772000Y-5845000D02*
X13852000Y-5925000D01*
X13852000Y-5845000D02*
X13772000Y-5925000D01*
X13772000Y-6099000D02*
X13852000Y-6179000D01*
X13852000Y-6099000D02*
X13772000Y-6179000D01*
X13772000Y-6353000D02*
X13852000Y-6433000D01*
X13852000Y-6353000D02*
X13772000Y-6433000D01*
X13772000Y-6607000D02*
X13852000Y-6687000D01*
X13852000Y-6607000D02*
X13772000Y-6687000D01*
X13772000Y-6861000D02*
X13852000Y-6941000D01*
X13852000Y-6861000D02*
X13772000Y-6941000D01*
X11300000Y-4842000D02*
G75*
G02*
X11200000Y-4842000I-50000J0D01*
G01*
X11200000Y-4842000D02*
G75*
G02*
X11300000Y-4842000I50000J0D01*
G01*
X11300000Y-5096000D02*
G75*
G02*
X11200000Y-5096000I-50000J0D01*
G01*
X11200000Y-5096000D02*
G75*
G02*
X11300000Y-5096000I50000J0D01*
G01*
X11300000Y-5350000D02*
G75*
G02*
X11200000Y-5350000I-50000J0D01*
G01*
X11200000Y-5350000D02*
G75*
G02*
X11300000Y-5350000I50000J0D01*
G01*
X11300000Y-5604000D02*
G75*
G02*
X11200000Y-5604000I-50000J0D01*
G01*
X11200000Y-5604000D02*
G75*
G02*
X11300000Y-5604000I50000J0D01*
G01*
X11300000Y-5858000D02*
G75*
G02*
X11200000Y-5858000I-50000J0D01*
G01*
X11200000Y-5858000D02*
G75*
G02*
X11300000Y-5858000I50000J0D01*
G01*
D13*
X11215000Y-10779000D02*
X11215000Y-10929000D01*
X11140000Y-10854000D02*
X11290000Y-10854000D01*
X11850000Y-10525000D02*
X11850000Y-10675000D01*
X11775000Y-10600000D02*
X11925000Y-10600000D01*
X13665000Y-10779000D02*
X13665000Y-10929000D01*
X13590000Y-10854000D02*
X13740000Y-10854000D01*
X14300000Y-10525000D02*
X14300000Y-10675000D01*
X14225000Y-10600000D02*
X14375000Y-10600000D01*
X16011000Y-9021000D02*
X16011000Y-9171000D01*
X15936000Y-9096000D02*
X16086000Y-9096000D01*
X16015000Y-6629000D02*
X16015000Y-6779000D01*
X15940000Y-6704000D02*
X16090000Y-6704000D01*
X16646000Y-8767000D02*
X16646000Y-8917000D01*
X16571000Y-8842000D02*
X16721000Y-8842000D01*
X16650000Y-6375000D02*
X16650000Y-6525000D01*
X16575000Y-6450000D02*
X16725000Y-6450000D01*
X18265000Y-5979000D02*
X18265000Y-6129000D01*
X18190000Y-6054000D02*
X18340000Y-6054000D01*
X18315000Y-8529000D02*
X18315000Y-8679000D01*
X18240000Y-8604000D02*
X18390000Y-8604000D01*
X18900000Y-5725000D02*
X18900000Y-5875000D01*
X18825000Y-5800000D02*
X18975000Y-5800000D01*
X18950000Y-8275000D02*
X18950000Y-8425000D01*
X18875000Y-8350000D02*
X19025000Y-8350000D01*
X20565000Y-5979000D02*
X20565000Y-6129000D01*
X20490000Y-6054000D02*
X20640000Y-6054000D01*
X20611000Y-8521000D02*
X20611000Y-8671000D01*
X20536000Y-8596000D02*
X20686000Y-8596000D01*
X21200000Y-5725000D02*
X21200000Y-5875000D01*
X21125000Y-5800000D02*
X21275000Y-5800000D01*
X21246000Y-8267000D02*
X21246000Y-8417000D01*
X21171000Y-8342000D02*
X21321000Y-8342000D01*
D11*
X9258277Y-13163984D02*
X9258277Y-12963984D01*
X9258277Y-12963984D02*
X9305896Y-12963984D01*
X9305896Y-12963984D02*
X9334467Y-12973508D01*
X9334467Y-12973508D02*
X9353515Y-12992555D01*
X9353515Y-12992555D02*
X9363039Y-13011603D01*
X9363039Y-13011603D02*
X9372563Y-13049698D01*
X9372563Y-13049698D02*
X9372563Y-13078269D01*
X9372563Y-13078269D02*
X9363039Y-13116365D01*
X9363039Y-13116365D02*
X9353515Y-13135412D01*
X9353515Y-13135412D02*
X9334467Y-13154460D01*
X9334467Y-13154460D02*
X9305896Y-13163984D01*
X9305896Y-13163984D02*
X9258277Y-13163984D01*
X9458277Y-13163984D02*
X9458277Y-13030650D01*
X9458277Y-13068746D02*
X9467801Y-13049698D01*
X9467801Y-13049698D02*
X9477324Y-13040174D01*
X9477324Y-13040174D02*
X9496372Y-13030650D01*
X9496372Y-13030650D02*
X9515420Y-13030650D01*
X9582086Y-13163984D02*
X9582086Y-13030650D01*
X9582086Y-12963984D02*
X9572563Y-12973508D01*
X9572563Y-12973508D02*
X9582086Y-12983031D01*
X9582086Y-12983031D02*
X9591610Y-12973508D01*
X9591610Y-12973508D02*
X9582086Y-12963984D01*
X9582086Y-12963984D02*
X9582086Y-12983031D01*
X9705896Y-13163984D02*
X9686848Y-13154460D01*
X9686848Y-13154460D02*
X9677324Y-13135412D01*
X9677324Y-13135412D02*
X9677324Y-12963984D01*
X9810658Y-13163984D02*
X9791610Y-13154460D01*
X9791610Y-13154460D02*
X9782086Y-13135412D01*
X9782086Y-13135412D02*
X9782086Y-12963984D01*
X10039229Y-13163984D02*
X10039229Y-12963984D01*
X10039229Y-12963984D02*
X10105896Y-13106841D01*
X10105896Y-13106841D02*
X10172563Y-12963984D01*
X10172563Y-12963984D02*
X10172563Y-13163984D01*
X10353515Y-13163984D02*
X10353515Y-13059222D01*
X10353515Y-13059222D02*
X10343991Y-13040174D01*
X10343991Y-13040174D02*
X10324944Y-13030650D01*
X10324944Y-13030650D02*
X10286848Y-13030650D01*
X10286848Y-13030650D02*
X10267801Y-13040174D01*
X10353515Y-13154460D02*
X10334467Y-13163984D01*
X10334467Y-13163984D02*
X10286848Y-13163984D01*
X10286848Y-13163984D02*
X10267801Y-13154460D01*
X10267801Y-13154460D02*
X10258277Y-13135412D01*
X10258277Y-13135412D02*
X10258277Y-13116365D01*
X10258277Y-13116365D02*
X10267801Y-13097317D01*
X10267801Y-13097317D02*
X10286848Y-13087793D01*
X10286848Y-13087793D02*
X10334467Y-13087793D01*
X10334467Y-13087793D02*
X10353515Y-13078269D01*
X10448753Y-13030650D02*
X10448753Y-13230650D01*
X10448753Y-13040174D02*
X10467801Y-13030650D01*
X10467801Y-13030650D02*
X10505896Y-13030650D01*
X10505896Y-13030650D02*
X10524944Y-13040174D01*
X10524944Y-13040174D02*
X10534467Y-13049698D01*
X10534467Y-13049698D02*
X10543991Y-13068746D01*
X10543991Y-13068746D02*
X10543991Y-13125888D01*
X10543991Y-13125888D02*
X10534467Y-13144936D01*
X10534467Y-13144936D02*
X10524944Y-13154460D01*
X10524944Y-13154460D02*
X10505896Y-13163984D01*
X10505896Y-13163984D02*
X10467801Y-13163984D01*
X10467801Y-13163984D02*
X10448753Y-13154460D01*
X10629705Y-13144936D02*
X10639229Y-13154460D01*
X10639229Y-13154460D02*
X10629705Y-13163984D01*
X10629705Y-13163984D02*
X10620182Y-13154460D01*
X10620182Y-13154460D02*
X10629705Y-13144936D01*
X10629705Y-13144936D02*
X10629705Y-13163984D01*
X10629705Y-13040174D02*
X10639229Y-13049698D01*
X10639229Y-13049698D02*
X10629705Y-13059222D01*
X10629705Y-13059222D02*
X10620182Y-13049698D01*
X10620182Y-13049698D02*
X10629705Y-13040174D01*
X10629705Y-13040174D02*
X10629705Y-13059222D01*
D12*
X8917500Y-13452500D02*
X8997500Y-13532500D01*
X8997500Y-13452500D02*
X8917500Y-13532500D01*
D11*
X9296372Y-13383984D02*
X9315420Y-13383984D01*
X9315420Y-13383984D02*
X9334467Y-13393508D01*
X9334467Y-13393508D02*
X9343991Y-13403031D01*
X9343991Y-13403031D02*
X9353515Y-13422079D01*
X9353515Y-13422079D02*
X9363039Y-13460174D01*
X9363039Y-13460174D02*
X9363039Y-13507793D01*
X9363039Y-13507793D02*
X9353515Y-13545888D01*
X9353515Y-13545888D02*
X9343991Y-13564936D01*
X9343991Y-13564936D02*
X9334467Y-13574460D01*
X9334467Y-13574460D02*
X9315420Y-13583984D01*
X9315420Y-13583984D02*
X9296372Y-13583984D01*
X9296372Y-13583984D02*
X9277324Y-13574460D01*
X9277324Y-13574460D02*
X9267801Y-13564936D01*
X9267801Y-13564936D02*
X9258277Y-13545888D01*
X9258277Y-13545888D02*
X9248753Y-13507793D01*
X9248753Y-13507793D02*
X9248753Y-13460174D01*
X9248753Y-13460174D02*
X9258277Y-13422079D01*
X9258277Y-13422079D02*
X9267801Y-13403031D01*
X9267801Y-13403031D02*
X9277324Y-13393508D01*
X9277324Y-13393508D02*
X9296372Y-13383984D01*
X9448753Y-13564936D02*
X9458277Y-13574460D01*
X9458277Y-13574460D02*
X9448753Y-13583984D01*
X9448753Y-13583984D02*
X9439229Y-13574460D01*
X9439229Y-13574460D02*
X9448753Y-13564936D01*
X9448753Y-13564936D02*
X9448753Y-13583984D01*
X9572563Y-13469698D02*
X9553515Y-13460174D01*
X9553515Y-13460174D02*
X9543991Y-13450650D01*
X9543991Y-13450650D02*
X9534467Y-13431603D01*
X9534467Y-13431603D02*
X9534467Y-13422079D01*
X9534467Y-13422079D02*
X9543991Y-13403031D01*
X9543991Y-13403031D02*
X9553515Y-13393508D01*
X9553515Y-13393508D02*
X9572563Y-13383984D01*
X9572563Y-13383984D02*
X9610658Y-13383984D01*
X9610658Y-13383984D02*
X9629705Y-13393508D01*
X9629705Y-13393508D02*
X9639229Y-13403031D01*
X9639229Y-13403031D02*
X9648753Y-13422079D01*
X9648753Y-13422079D02*
X9648753Y-13431603D01*
X9648753Y-13431603D02*
X9639229Y-13450650D01*
X9639229Y-13450650D02*
X9629705Y-13460174D01*
X9629705Y-13460174D02*
X9610658Y-13469698D01*
X9610658Y-13469698D02*
X9572563Y-13469698D01*
X9572563Y-13469698D02*
X9553515Y-13479222D01*
X9553515Y-13479222D02*
X9543991Y-13488746D01*
X9543991Y-13488746D02*
X9534467Y-13507793D01*
X9534467Y-13507793D02*
X9534467Y-13545888D01*
X9534467Y-13545888D02*
X9543991Y-13564936D01*
X9543991Y-13564936D02*
X9553515Y-13574460D01*
X9553515Y-13574460D02*
X9572563Y-13583984D01*
X9572563Y-13583984D02*
X9610658Y-13583984D01*
X9610658Y-13583984D02*
X9629705Y-13574460D01*
X9629705Y-13574460D02*
X9639229Y-13564936D01*
X9639229Y-13564936D02*
X9648753Y-13545888D01*
X9648753Y-13545888D02*
X9648753Y-13507793D01*
X9648753Y-13507793D02*
X9639229Y-13488746D01*
X9639229Y-13488746D02*
X9629705Y-13479222D01*
X9629705Y-13479222D02*
X9610658Y-13469698D01*
X9772563Y-13383984D02*
X9791610Y-13383984D01*
X9791610Y-13383984D02*
X9810658Y-13393508D01*
X9810658Y-13393508D02*
X9820182Y-13403031D01*
X9820182Y-13403031D02*
X9829705Y-13422079D01*
X9829705Y-13422079D02*
X9839229Y-13460174D01*
X9839229Y-13460174D02*
X9839229Y-13507793D01*
X9839229Y-13507793D02*
X9829705Y-13545888D01*
X9829705Y-13545888D02*
X9820182Y-13564936D01*
X9820182Y-13564936D02*
X9810658Y-13574460D01*
X9810658Y-13574460D02*
X9791610Y-13583984D01*
X9791610Y-13583984D02*
X9772563Y-13583984D01*
X9772563Y-13583984D02*
X9753515Y-13574460D01*
X9753515Y-13574460D02*
X9743991Y-13564936D01*
X9743991Y-13564936D02*
X9734467Y-13545888D01*
X9734467Y-13545888D02*
X9724944Y-13507793D01*
X9724944Y-13507793D02*
X9724944Y-13460174D01*
X9724944Y-13460174D02*
X9734467Y-13422079D01*
X9734467Y-13422079D02*
X9743991Y-13403031D01*
X9743991Y-13403031D02*
X9753515Y-13393508D01*
X9753515Y-13393508D02*
X9772563Y-13383984D01*
X9963039Y-13383984D02*
X9982086Y-13383984D01*
X9982086Y-13383984D02*
X10001134Y-13393508D01*
X10001134Y-13393508D02*
X10010658Y-13403031D01*
X10010658Y-13403031D02*
X10020182Y-13422079D01*
X10020182Y-13422079D02*
X10029705Y-13460174D01*
X10029705Y-13460174D02*
X10029705Y-13507793D01*
X10029705Y-13507793D02*
X10020182Y-13545888D01*
X10020182Y-13545888D02*
X10010658Y-13564936D01*
X10010658Y-13564936D02*
X10001134Y-13574460D01*
X10001134Y-13574460D02*
X9982086Y-13583984D01*
X9982086Y-13583984D02*
X9963039Y-13583984D01*
X9963039Y-13583984D02*
X9943991Y-13574460D01*
X9943991Y-13574460D02*
X9934467Y-13564936D01*
X9934467Y-13564936D02*
X9924944Y-13545888D01*
X9924944Y-13545888D02*
X9915420Y-13507793D01*
X9915420Y-13507793D02*
X9915420Y-13460174D01*
X9915420Y-13460174D02*
X9924944Y-13422079D01*
X9924944Y-13422079D02*
X9934467Y-13403031D01*
X9934467Y-13403031D02*
X9943991Y-13393508D01*
X9943991Y-13393508D02*
X9963039Y-13383984D01*
X10115420Y-13583984D02*
X10115420Y-13450650D01*
X10115420Y-13469698D02*
X10124944Y-13460174D01*
X10124944Y-13460174D02*
X10143991Y-13450650D01*
X10143991Y-13450650D02*
X10172563Y-13450650D01*
X10172563Y-13450650D02*
X10191610Y-13460174D01*
X10191610Y-13460174D02*
X10201134Y-13479222D01*
X10201134Y-13479222D02*
X10201134Y-13583984D01*
X10201134Y-13479222D02*
X10210658Y-13460174D01*
X10210658Y-13460174D02*
X10229705Y-13450650D01*
X10229705Y-13450650D02*
X10258277Y-13450650D01*
X10258277Y-13450650D02*
X10277325Y-13460174D01*
X10277325Y-13460174D02*
X10286848Y-13479222D01*
X10286848Y-13479222D02*
X10286848Y-13583984D01*
X10382086Y-13583984D02*
X10382086Y-13450650D01*
X10382086Y-13469698D02*
X10391610Y-13460174D01*
X10391610Y-13460174D02*
X10410658Y-13450650D01*
X10410658Y-13450650D02*
X10439229Y-13450650D01*
X10439229Y-13450650D02*
X10458277Y-13460174D01*
X10458277Y-13460174D02*
X10467801Y-13479222D01*
X10467801Y-13479222D02*
X10467801Y-13583984D01*
X10467801Y-13479222D02*
X10477325Y-13460174D01*
X10477325Y-13460174D02*
X10496372Y-13450650D01*
X10496372Y-13450650D02*
X10524944Y-13450650D01*
X10524944Y-13450650D02*
X10543991Y-13460174D01*
X10543991Y-13460174D02*
X10553515Y-13479222D01*
X10553515Y-13479222D02*
X10553515Y-13583984D01*
X10943991Y-13374460D02*
X10772563Y-13631603D01*
X11201134Y-13383984D02*
X11220182Y-13383984D01*
X11220182Y-13383984D02*
X11239229Y-13393508D01*
X11239229Y-13393508D02*
X11248753Y-13403031D01*
X11248753Y-13403031D02*
X11258277Y-13422079D01*
X11258277Y-13422079D02*
X11267801Y-13460174D01*
X11267801Y-13460174D02*
X11267801Y-13507793D01*
X11267801Y-13507793D02*
X11258277Y-13545888D01*
X11258277Y-13545888D02*
X11248753Y-13564936D01*
X11248753Y-13564936D02*
X11239229Y-13574460D01*
X11239229Y-13574460D02*
X11220182Y-13583984D01*
X11220182Y-13583984D02*
X11201134Y-13583984D01*
X11201134Y-13583984D02*
X11182087Y-13574460D01*
X11182087Y-13574460D02*
X11172563Y-13564936D01*
X11172563Y-13564936D02*
X11163039Y-13545888D01*
X11163039Y-13545888D02*
X11153515Y-13507793D01*
X11153515Y-13507793D02*
X11153515Y-13460174D01*
X11153515Y-13460174D02*
X11163039Y-13422079D01*
X11163039Y-13422079D02*
X11172563Y-13403031D01*
X11172563Y-13403031D02*
X11182087Y-13393508D01*
X11182087Y-13393508D02*
X11201134Y-13383984D01*
X11353515Y-13564936D02*
X11363039Y-13574460D01*
X11363039Y-13574460D02*
X11353515Y-13583984D01*
X11353515Y-13583984D02*
X11343991Y-13574460D01*
X11343991Y-13574460D02*
X11353515Y-13564936D01*
X11353515Y-13564936D02*
X11353515Y-13583984D01*
X11486848Y-13383984D02*
X11505896Y-13383984D01*
X11505896Y-13383984D02*
X11524944Y-13393508D01*
X11524944Y-13393508D02*
X11534467Y-13403031D01*
X11534467Y-13403031D02*
X11543991Y-13422079D01*
X11543991Y-13422079D02*
X11553515Y-13460174D01*
X11553515Y-13460174D02*
X11553515Y-13507793D01*
X11553515Y-13507793D02*
X11543991Y-13545888D01*
X11543991Y-13545888D02*
X11534467Y-13564936D01*
X11534467Y-13564936D02*
X11524944Y-13574460D01*
X11524944Y-13574460D02*
X11505896Y-13583984D01*
X11505896Y-13583984D02*
X11486848Y-13583984D01*
X11486848Y-13583984D02*
X11467801Y-13574460D01*
X11467801Y-13574460D02*
X11458277Y-13564936D01*
X11458277Y-13564936D02*
X11448753Y-13545888D01*
X11448753Y-13545888D02*
X11439229Y-13507793D01*
X11439229Y-13507793D02*
X11439229Y-13460174D01*
X11439229Y-13460174D02*
X11448753Y-13422079D01*
X11448753Y-13422079D02*
X11458277Y-13403031D01*
X11458277Y-13403031D02*
X11467801Y-13393508D01*
X11467801Y-13393508D02*
X11486848Y-13383984D01*
X11620182Y-13383984D02*
X11743991Y-13383984D01*
X11743991Y-13383984D02*
X11677325Y-13460174D01*
X11677325Y-13460174D02*
X11705896Y-13460174D01*
X11705896Y-13460174D02*
X11724944Y-13469698D01*
X11724944Y-13469698D02*
X11734467Y-13479222D01*
X11734467Y-13479222D02*
X11743991Y-13498269D01*
X11743991Y-13498269D02*
X11743991Y-13545888D01*
X11743991Y-13545888D02*
X11734467Y-13564936D01*
X11734467Y-13564936D02*
X11724944Y-13574460D01*
X11724944Y-13574460D02*
X11705896Y-13583984D01*
X11705896Y-13583984D02*
X11648753Y-13583984D01*
X11648753Y-13583984D02*
X11629706Y-13574460D01*
X11629706Y-13574460D02*
X11620182Y-13564936D01*
X11934467Y-13583984D02*
X11820182Y-13583984D01*
X11877325Y-13583984D02*
X11877325Y-13383984D01*
X11877325Y-13383984D02*
X11858277Y-13412555D01*
X11858277Y-13412555D02*
X11839229Y-13431603D01*
X11839229Y-13431603D02*
X11820182Y-13441127D01*
X12115420Y-13383984D02*
X12020182Y-13383984D01*
X12020182Y-13383984D02*
X12010658Y-13479222D01*
X12010658Y-13479222D02*
X12020182Y-13469698D01*
X12020182Y-13469698D02*
X12039229Y-13460174D01*
X12039229Y-13460174D02*
X12086848Y-13460174D01*
X12086848Y-13460174D02*
X12105896Y-13469698D01*
X12105896Y-13469698D02*
X12115420Y-13479222D01*
X12115420Y-13479222D02*
X12124944Y-13498269D01*
X12124944Y-13498269D02*
X12124944Y-13545888D01*
X12124944Y-13545888D02*
X12115420Y-13564936D01*
X12115420Y-13564936D02*
X12105896Y-13574460D01*
X12105896Y-13574460D02*
X12086848Y-13583984D01*
X12086848Y-13583984D02*
X12039229Y-13583984D01*
X12039229Y-13583984D02*
X12020182Y-13574460D01*
X12020182Y-13574460D02*
X12010658Y-13564936D01*
X12201134Y-13383984D02*
X12201134Y-13422079D01*
X12277325Y-13383984D02*
X12277325Y-13422079D01*
X12572563Y-13660174D02*
X12563039Y-13650650D01*
X12563039Y-13650650D02*
X12543991Y-13622079D01*
X12543991Y-13622079D02*
X12534468Y-13603031D01*
X12534468Y-13603031D02*
X12524944Y-13574460D01*
X12524944Y-13574460D02*
X12515420Y-13526841D01*
X12515420Y-13526841D02*
X12515420Y-13488746D01*
X12515420Y-13488746D02*
X12524944Y-13441127D01*
X12524944Y-13441127D02*
X12534468Y-13412555D01*
X12534468Y-13412555D02*
X12543991Y-13393508D01*
X12543991Y-13393508D02*
X12563039Y-13364936D01*
X12563039Y-13364936D02*
X12572563Y-13355412D01*
X12639229Y-13403031D02*
X12648753Y-13393508D01*
X12648753Y-13393508D02*
X12667801Y-13383984D01*
X12667801Y-13383984D02*
X12715420Y-13383984D01*
X12715420Y-13383984D02*
X12734468Y-13393508D01*
X12734468Y-13393508D02*
X12743991Y-13403031D01*
X12743991Y-13403031D02*
X12753515Y-13422079D01*
X12753515Y-13422079D02*
X12753515Y-13441127D01*
X12753515Y-13441127D02*
X12743991Y-13469698D01*
X12743991Y-13469698D02*
X12629706Y-13583984D01*
X12629706Y-13583984D02*
X12753515Y-13583984D01*
X12924944Y-13450650D02*
X12924944Y-13583984D01*
X12877325Y-13374460D02*
X12829706Y-13517317D01*
X12829706Y-13517317D02*
X12953515Y-13517317D01*
X13182087Y-13583984D02*
X13182087Y-13383984D01*
X13267801Y-13583984D02*
X13267801Y-13479222D01*
X13267801Y-13479222D02*
X13258277Y-13460174D01*
X13258277Y-13460174D02*
X13239230Y-13450650D01*
X13239230Y-13450650D02*
X13210658Y-13450650D01*
X13210658Y-13450650D02*
X13191610Y-13460174D01*
X13191610Y-13460174D02*
X13182087Y-13469698D01*
X13391610Y-13583984D02*
X13372563Y-13574460D01*
X13372563Y-13574460D02*
X13363039Y-13564936D01*
X13363039Y-13564936D02*
X13353515Y-13545888D01*
X13353515Y-13545888D02*
X13353515Y-13488746D01*
X13353515Y-13488746D02*
X13363039Y-13469698D01*
X13363039Y-13469698D02*
X13372563Y-13460174D01*
X13372563Y-13460174D02*
X13391610Y-13450650D01*
X13391610Y-13450650D02*
X13420182Y-13450650D01*
X13420182Y-13450650D02*
X13439230Y-13460174D01*
X13439230Y-13460174D02*
X13448753Y-13469698D01*
X13448753Y-13469698D02*
X13458277Y-13488746D01*
X13458277Y-13488746D02*
X13458277Y-13545888D01*
X13458277Y-13545888D02*
X13448753Y-13564936D01*
X13448753Y-13564936D02*
X13439230Y-13574460D01*
X13439230Y-13574460D02*
X13420182Y-13583984D01*
X13420182Y-13583984D02*
X13391610Y-13583984D01*
X13572563Y-13583984D02*
X13553515Y-13574460D01*
X13553515Y-13574460D02*
X13543991Y-13555412D01*
X13543991Y-13555412D02*
X13543991Y-13383984D01*
X13724944Y-13574460D02*
X13705896Y-13583984D01*
X13705896Y-13583984D02*
X13667801Y-13583984D01*
X13667801Y-13583984D02*
X13648753Y-13574460D01*
X13648753Y-13574460D02*
X13639230Y-13555412D01*
X13639230Y-13555412D02*
X13639230Y-13479222D01*
X13639230Y-13479222D02*
X13648753Y-13460174D01*
X13648753Y-13460174D02*
X13667801Y-13450650D01*
X13667801Y-13450650D02*
X13705896Y-13450650D01*
X13705896Y-13450650D02*
X13724944Y-13460174D01*
X13724944Y-13460174D02*
X13734468Y-13479222D01*
X13734468Y-13479222D02*
X13734468Y-13498269D01*
X13734468Y-13498269D02*
X13639230Y-13517317D01*
X13810658Y-13574460D02*
X13829706Y-13583984D01*
X13829706Y-13583984D02*
X13867801Y-13583984D01*
X13867801Y-13583984D02*
X13886849Y-13574460D01*
X13886849Y-13574460D02*
X13896372Y-13555412D01*
X13896372Y-13555412D02*
X13896372Y-13545888D01*
X13896372Y-13545888D02*
X13886849Y-13526841D01*
X13886849Y-13526841D02*
X13867801Y-13517317D01*
X13867801Y-13517317D02*
X13839230Y-13517317D01*
X13839230Y-13517317D02*
X13820182Y-13507793D01*
X13820182Y-13507793D02*
X13810658Y-13488746D01*
X13810658Y-13488746D02*
X13810658Y-13479222D01*
X13810658Y-13479222D02*
X13820182Y-13460174D01*
X13820182Y-13460174D02*
X13839230Y-13450650D01*
X13839230Y-13450650D02*
X13867801Y-13450650D01*
X13867801Y-13450650D02*
X13886849Y-13460174D01*
X13963039Y-13660174D02*
X13972563Y-13650650D01*
X13972563Y-13650650D02*
X13991611Y-13622079D01*
X13991611Y-13622079D02*
X14001134Y-13603031D01*
X14001134Y-13603031D02*
X14010658Y-13574460D01*
X14010658Y-13574460D02*
X14020182Y-13526841D01*
X14020182Y-13526841D02*
X14020182Y-13488746D01*
X14020182Y-13488746D02*
X14010658Y-13441127D01*
X14010658Y-13441127D02*
X14001134Y-13412555D01*
X14001134Y-13412555D02*
X13991611Y-13393508D01*
X13991611Y-13393508D02*
X13972563Y-13364936D01*
X13972563Y-13364936D02*
X13963039Y-13355412D01*
D12*
X8997500Y-13756500D02*
G75*
G02*
X8897500Y-13756500I-50000J0D01*
G01*
X8897500Y-13756500D02*
G75*
G02*
X8997500Y-13756500I50000J0D01*
G01*
D11*
X9363039Y-13847984D02*
X9248753Y-13847984D01*
X9305896Y-13847984D02*
X9305896Y-13647984D01*
X9305896Y-13647984D02*
X9286848Y-13676555D01*
X9286848Y-13676555D02*
X9267801Y-13695603D01*
X9267801Y-13695603D02*
X9248753Y-13705127D01*
X9448753Y-13828936D02*
X9458277Y-13838460D01*
X9458277Y-13838460D02*
X9448753Y-13847984D01*
X9448753Y-13847984D02*
X9439229Y-13838460D01*
X9439229Y-13838460D02*
X9448753Y-13828936D01*
X9448753Y-13828936D02*
X9448753Y-13847984D01*
X9582086Y-13647984D02*
X9601134Y-13647984D01*
X9601134Y-13647984D02*
X9620182Y-13657508D01*
X9620182Y-13657508D02*
X9629705Y-13667031D01*
X9629705Y-13667031D02*
X9639229Y-13686079D01*
X9639229Y-13686079D02*
X9648753Y-13724174D01*
X9648753Y-13724174D02*
X9648753Y-13771793D01*
X9648753Y-13771793D02*
X9639229Y-13809888D01*
X9639229Y-13809888D02*
X9629705Y-13828936D01*
X9629705Y-13828936D02*
X9620182Y-13838460D01*
X9620182Y-13838460D02*
X9601134Y-13847984D01*
X9601134Y-13847984D02*
X9582086Y-13847984D01*
X9582086Y-13847984D02*
X9563039Y-13838460D01*
X9563039Y-13838460D02*
X9553515Y-13828936D01*
X9553515Y-13828936D02*
X9543991Y-13809888D01*
X9543991Y-13809888D02*
X9534467Y-13771793D01*
X9534467Y-13771793D02*
X9534467Y-13724174D01*
X9534467Y-13724174D02*
X9543991Y-13686079D01*
X9543991Y-13686079D02*
X9553515Y-13667031D01*
X9553515Y-13667031D02*
X9563039Y-13657508D01*
X9563039Y-13657508D02*
X9582086Y-13647984D01*
X9772563Y-13647984D02*
X9791610Y-13647984D01*
X9791610Y-13647984D02*
X9810658Y-13657508D01*
X9810658Y-13657508D02*
X9820182Y-13667031D01*
X9820182Y-13667031D02*
X9829705Y-13686079D01*
X9829705Y-13686079D02*
X9839229Y-13724174D01*
X9839229Y-13724174D02*
X9839229Y-13771793D01*
X9839229Y-13771793D02*
X9829705Y-13809888D01*
X9829705Y-13809888D02*
X9820182Y-13828936D01*
X9820182Y-13828936D02*
X9810658Y-13838460D01*
X9810658Y-13838460D02*
X9791610Y-13847984D01*
X9791610Y-13847984D02*
X9772563Y-13847984D01*
X9772563Y-13847984D02*
X9753515Y-13838460D01*
X9753515Y-13838460D02*
X9743991Y-13828936D01*
X9743991Y-13828936D02*
X9734467Y-13809888D01*
X9734467Y-13809888D02*
X9724944Y-13771793D01*
X9724944Y-13771793D02*
X9724944Y-13724174D01*
X9724944Y-13724174D02*
X9734467Y-13686079D01*
X9734467Y-13686079D02*
X9743991Y-13667031D01*
X9743991Y-13667031D02*
X9753515Y-13657508D01*
X9753515Y-13657508D02*
X9772563Y-13647984D01*
X9963039Y-13647984D02*
X9982086Y-13647984D01*
X9982086Y-13647984D02*
X10001134Y-13657508D01*
X10001134Y-13657508D02*
X10010658Y-13667031D01*
X10010658Y-13667031D02*
X10020182Y-13686079D01*
X10020182Y-13686079D02*
X10029705Y-13724174D01*
X10029705Y-13724174D02*
X10029705Y-13771793D01*
X10029705Y-13771793D02*
X10020182Y-13809888D01*
X10020182Y-13809888D02*
X10010658Y-13828936D01*
X10010658Y-13828936D02*
X10001134Y-13838460D01*
X10001134Y-13838460D02*
X9982086Y-13847984D01*
X9982086Y-13847984D02*
X9963039Y-13847984D01*
X9963039Y-13847984D02*
X9943991Y-13838460D01*
X9943991Y-13838460D02*
X9934467Y-13828936D01*
X9934467Y-13828936D02*
X9924944Y-13809888D01*
X9924944Y-13809888D02*
X9915420Y-13771793D01*
X9915420Y-13771793D02*
X9915420Y-13724174D01*
X9915420Y-13724174D02*
X9924944Y-13686079D01*
X9924944Y-13686079D02*
X9934467Y-13667031D01*
X9934467Y-13667031D02*
X9943991Y-13657508D01*
X9943991Y-13657508D02*
X9963039Y-13647984D01*
X10115420Y-13847984D02*
X10115420Y-13714650D01*
X10115420Y-13733698D02*
X10124944Y-13724174D01*
X10124944Y-13724174D02*
X10143991Y-13714650D01*
X10143991Y-13714650D02*
X10172563Y-13714650D01*
X10172563Y-13714650D02*
X10191610Y-13724174D01*
X10191610Y-13724174D02*
X10201134Y-13743222D01*
X10201134Y-13743222D02*
X10201134Y-13847984D01*
X10201134Y-13743222D02*
X10210658Y-13724174D01*
X10210658Y-13724174D02*
X10229705Y-13714650D01*
X10229705Y-13714650D02*
X10258277Y-13714650D01*
X10258277Y-13714650D02*
X10277325Y-13724174D01*
X10277325Y-13724174D02*
X10286848Y-13743222D01*
X10286848Y-13743222D02*
X10286848Y-13847984D01*
X10382086Y-13847984D02*
X10382086Y-13714650D01*
X10382086Y-13733698D02*
X10391610Y-13724174D01*
X10391610Y-13724174D02*
X10410658Y-13714650D01*
X10410658Y-13714650D02*
X10439229Y-13714650D01*
X10439229Y-13714650D02*
X10458277Y-13724174D01*
X10458277Y-13724174D02*
X10467801Y-13743222D01*
X10467801Y-13743222D02*
X10467801Y-13847984D01*
X10467801Y-13743222D02*
X10477325Y-13724174D01*
X10477325Y-13724174D02*
X10496372Y-13714650D01*
X10496372Y-13714650D02*
X10524944Y-13714650D01*
X10524944Y-13714650D02*
X10543991Y-13724174D01*
X10543991Y-13724174D02*
X10553515Y-13743222D01*
X10553515Y-13743222D02*
X10553515Y-13847984D01*
X10943991Y-13638460D02*
X10772563Y-13895603D01*
X11201134Y-13647984D02*
X11220182Y-13647984D01*
X11220182Y-13647984D02*
X11239229Y-13657508D01*
X11239229Y-13657508D02*
X11248753Y-13667031D01*
X11248753Y-13667031D02*
X11258277Y-13686079D01*
X11258277Y-13686079D02*
X11267801Y-13724174D01*
X11267801Y-13724174D02*
X11267801Y-13771793D01*
X11267801Y-13771793D02*
X11258277Y-13809888D01*
X11258277Y-13809888D02*
X11248753Y-13828936D01*
X11248753Y-13828936D02*
X11239229Y-13838460D01*
X11239229Y-13838460D02*
X11220182Y-13847984D01*
X11220182Y-13847984D02*
X11201134Y-13847984D01*
X11201134Y-13847984D02*
X11182087Y-13838460D01*
X11182087Y-13838460D02*
X11172563Y-13828936D01*
X11172563Y-13828936D02*
X11163039Y-13809888D01*
X11163039Y-13809888D02*
X11153515Y-13771793D01*
X11153515Y-13771793D02*
X11153515Y-13724174D01*
X11153515Y-13724174D02*
X11163039Y-13686079D01*
X11163039Y-13686079D02*
X11172563Y-13667031D01*
X11172563Y-13667031D02*
X11182087Y-13657508D01*
X11182087Y-13657508D02*
X11201134Y-13647984D01*
X11353515Y-13828936D02*
X11363039Y-13838460D01*
X11363039Y-13838460D02*
X11353515Y-13847984D01*
X11353515Y-13847984D02*
X11343991Y-13838460D01*
X11343991Y-13838460D02*
X11353515Y-13828936D01*
X11353515Y-13828936D02*
X11353515Y-13847984D01*
X11486848Y-13647984D02*
X11505896Y-13647984D01*
X11505896Y-13647984D02*
X11524944Y-13657508D01*
X11524944Y-13657508D02*
X11534467Y-13667031D01*
X11534467Y-13667031D02*
X11543991Y-13686079D01*
X11543991Y-13686079D02*
X11553515Y-13724174D01*
X11553515Y-13724174D02*
X11553515Y-13771793D01*
X11553515Y-13771793D02*
X11543991Y-13809888D01*
X11543991Y-13809888D02*
X11534467Y-13828936D01*
X11534467Y-13828936D02*
X11524944Y-13838460D01*
X11524944Y-13838460D02*
X11505896Y-13847984D01*
X11505896Y-13847984D02*
X11486848Y-13847984D01*
X11486848Y-13847984D02*
X11467801Y-13838460D01*
X11467801Y-13838460D02*
X11458277Y-13828936D01*
X11458277Y-13828936D02*
X11448753Y-13809888D01*
X11448753Y-13809888D02*
X11439229Y-13771793D01*
X11439229Y-13771793D02*
X11439229Y-13724174D01*
X11439229Y-13724174D02*
X11448753Y-13686079D01*
X11448753Y-13686079D02*
X11458277Y-13667031D01*
X11458277Y-13667031D02*
X11467801Y-13657508D01*
X11467801Y-13657508D02*
X11486848Y-13647984D01*
X11620182Y-13647984D02*
X11743991Y-13647984D01*
X11743991Y-13647984D02*
X11677325Y-13724174D01*
X11677325Y-13724174D02*
X11705896Y-13724174D01*
X11705896Y-13724174D02*
X11724944Y-13733698D01*
X11724944Y-13733698D02*
X11734467Y-13743222D01*
X11734467Y-13743222D02*
X11743991Y-13762269D01*
X11743991Y-13762269D02*
X11743991Y-13809888D01*
X11743991Y-13809888D02*
X11734467Y-13828936D01*
X11734467Y-13828936D02*
X11724944Y-13838460D01*
X11724944Y-13838460D02*
X11705896Y-13847984D01*
X11705896Y-13847984D02*
X11648753Y-13847984D01*
X11648753Y-13847984D02*
X11629706Y-13838460D01*
X11629706Y-13838460D02*
X11620182Y-13828936D01*
X11839229Y-13847984D02*
X11877325Y-13847984D01*
X11877325Y-13847984D02*
X11896372Y-13838460D01*
X11896372Y-13838460D02*
X11905896Y-13828936D01*
X11905896Y-13828936D02*
X11924944Y-13800365D01*
X11924944Y-13800365D02*
X11934467Y-13762269D01*
X11934467Y-13762269D02*
X11934467Y-13686079D01*
X11934467Y-13686079D02*
X11924944Y-13667031D01*
X11924944Y-13667031D02*
X11915420Y-13657508D01*
X11915420Y-13657508D02*
X11896372Y-13647984D01*
X11896372Y-13647984D02*
X11858277Y-13647984D01*
X11858277Y-13647984D02*
X11839229Y-13657508D01*
X11839229Y-13657508D02*
X11829706Y-13667031D01*
X11829706Y-13667031D02*
X11820182Y-13686079D01*
X11820182Y-13686079D02*
X11820182Y-13733698D01*
X11820182Y-13733698D02*
X11829706Y-13752746D01*
X11829706Y-13752746D02*
X11839229Y-13762269D01*
X11839229Y-13762269D02*
X11858277Y-13771793D01*
X11858277Y-13771793D02*
X11896372Y-13771793D01*
X11896372Y-13771793D02*
X11915420Y-13762269D01*
X11915420Y-13762269D02*
X11924944Y-13752746D01*
X11924944Y-13752746D02*
X11934467Y-13733698D01*
X12105896Y-13714650D02*
X12105896Y-13847984D01*
X12058277Y-13638460D02*
X12010658Y-13781317D01*
X12010658Y-13781317D02*
X12134467Y-13781317D01*
X12201134Y-13647984D02*
X12201134Y-13686079D01*
X12277325Y-13647984D02*
X12277325Y-13686079D01*
X12572563Y-13924174D02*
X12563039Y-13914650D01*
X12563039Y-13914650D02*
X12543991Y-13886079D01*
X12543991Y-13886079D02*
X12534468Y-13867031D01*
X12534468Y-13867031D02*
X12524944Y-13838460D01*
X12524944Y-13838460D02*
X12515420Y-13790841D01*
X12515420Y-13790841D02*
X12515420Y-13752746D01*
X12515420Y-13752746D02*
X12524944Y-13705127D01*
X12524944Y-13705127D02*
X12534468Y-13676555D01*
X12534468Y-13676555D02*
X12543991Y-13657508D01*
X12543991Y-13657508D02*
X12563039Y-13628936D01*
X12563039Y-13628936D02*
X12572563Y-13619412D01*
X12743991Y-13647984D02*
X12648753Y-13647984D01*
X12648753Y-13647984D02*
X12639229Y-13743222D01*
X12639229Y-13743222D02*
X12648753Y-13733698D01*
X12648753Y-13733698D02*
X12667801Y-13724174D01*
X12667801Y-13724174D02*
X12715420Y-13724174D01*
X12715420Y-13724174D02*
X12734468Y-13733698D01*
X12734468Y-13733698D02*
X12743991Y-13743222D01*
X12743991Y-13743222D02*
X12753515Y-13762269D01*
X12753515Y-13762269D02*
X12753515Y-13809888D01*
X12753515Y-13809888D02*
X12743991Y-13828936D01*
X12743991Y-13828936D02*
X12734468Y-13838460D01*
X12734468Y-13838460D02*
X12715420Y-13847984D01*
X12715420Y-13847984D02*
X12667801Y-13847984D01*
X12667801Y-13847984D02*
X12648753Y-13838460D01*
X12648753Y-13838460D02*
X12639229Y-13828936D01*
X12991610Y-13847984D02*
X12991610Y-13647984D01*
X13077325Y-13847984D02*
X13077325Y-13743222D01*
X13077325Y-13743222D02*
X13067801Y-13724174D01*
X13067801Y-13724174D02*
X13048753Y-13714650D01*
X13048753Y-13714650D02*
X13020182Y-13714650D01*
X13020182Y-13714650D02*
X13001134Y-13724174D01*
X13001134Y-13724174D02*
X12991610Y-13733698D01*
X13201134Y-13847984D02*
X13182087Y-13838460D01*
X13182087Y-13838460D02*
X13172563Y-13828936D01*
X13172563Y-13828936D02*
X13163039Y-13809888D01*
X13163039Y-13809888D02*
X13163039Y-13752746D01*
X13163039Y-13752746D02*
X13172563Y-13733698D01*
X13172563Y-13733698D02*
X13182087Y-13724174D01*
X13182087Y-13724174D02*
X13201134Y-13714650D01*
X13201134Y-13714650D02*
X13229706Y-13714650D01*
X13229706Y-13714650D02*
X13248753Y-13724174D01*
X13248753Y-13724174D02*
X13258277Y-13733698D01*
X13258277Y-13733698D02*
X13267801Y-13752746D01*
X13267801Y-13752746D02*
X13267801Y-13809888D01*
X13267801Y-13809888D02*
X13258277Y-13828936D01*
X13258277Y-13828936D02*
X13248753Y-13838460D01*
X13248753Y-13838460D02*
X13229706Y-13847984D01*
X13229706Y-13847984D02*
X13201134Y-13847984D01*
X13382087Y-13847984D02*
X13363039Y-13838460D01*
X13363039Y-13838460D02*
X13353515Y-13819412D01*
X13353515Y-13819412D02*
X13353515Y-13647984D01*
X13534468Y-13838460D02*
X13515420Y-13847984D01*
X13515420Y-13847984D02*
X13477325Y-13847984D01*
X13477325Y-13847984D02*
X13458277Y-13838460D01*
X13458277Y-13838460D02*
X13448753Y-13819412D01*
X13448753Y-13819412D02*
X13448753Y-13743222D01*
X13448753Y-13743222D02*
X13458277Y-13724174D01*
X13458277Y-13724174D02*
X13477325Y-13714650D01*
X13477325Y-13714650D02*
X13515420Y-13714650D01*
X13515420Y-13714650D02*
X13534468Y-13724174D01*
X13534468Y-13724174D02*
X13543991Y-13743222D01*
X13543991Y-13743222D02*
X13543991Y-13762269D01*
X13543991Y-13762269D02*
X13448753Y-13781317D01*
X13620182Y-13838460D02*
X13639230Y-13847984D01*
X13639230Y-13847984D02*
X13677325Y-13847984D01*
X13677325Y-13847984D02*
X13696372Y-13838460D01*
X13696372Y-13838460D02*
X13705896Y-13819412D01*
X13705896Y-13819412D02*
X13705896Y-13809888D01*
X13705896Y-13809888D02*
X13696372Y-13790841D01*
X13696372Y-13790841D02*
X13677325Y-13781317D01*
X13677325Y-13781317D02*
X13648753Y-13781317D01*
X13648753Y-13781317D02*
X13629706Y-13771793D01*
X13629706Y-13771793D02*
X13620182Y-13752746D01*
X13620182Y-13752746D02*
X13620182Y-13743222D01*
X13620182Y-13743222D02*
X13629706Y-13724174D01*
X13629706Y-13724174D02*
X13648753Y-13714650D01*
X13648753Y-13714650D02*
X13677325Y-13714650D01*
X13677325Y-13714650D02*
X13696372Y-13724174D01*
X13772563Y-13924174D02*
X13782087Y-13914650D01*
X13782087Y-13914650D02*
X13801134Y-13886079D01*
X13801134Y-13886079D02*
X13810658Y-13867031D01*
X13810658Y-13867031D02*
X13820182Y-13838460D01*
X13820182Y-13838460D02*
X13829706Y-13790841D01*
X13829706Y-13790841D02*
X13829706Y-13752746D01*
X13829706Y-13752746D02*
X13820182Y-13705127D01*
X13820182Y-13705127D02*
X13810658Y-13676555D01*
X13810658Y-13676555D02*
X13801134Y-13657508D01*
X13801134Y-13657508D02*
X13782087Y-13628936D01*
X13782087Y-13628936D02*
X13772563Y-13619412D01*
D13*
X8922500Y-13945500D02*
X8922500Y-14095500D01*
X8847500Y-14020500D02*
X8997500Y-14020500D01*
D11*
X9363039Y-14111984D02*
X9248753Y-14111984D01*
X9305896Y-14111984D02*
X9305896Y-13911984D01*
X9305896Y-13911984D02*
X9286848Y-13940555D01*
X9286848Y-13940555D02*
X9267801Y-13959603D01*
X9267801Y-13959603D02*
X9248753Y-13969127D01*
X9448753Y-14092936D02*
X9458277Y-14102460D01*
X9458277Y-14102460D02*
X9448753Y-14111984D01*
X9448753Y-14111984D02*
X9439229Y-14102460D01*
X9439229Y-14102460D02*
X9448753Y-14092936D01*
X9448753Y-14092936D02*
X9448753Y-14111984D01*
X9639229Y-13911984D02*
X9543991Y-13911984D01*
X9543991Y-13911984D02*
X9534467Y-14007222D01*
X9534467Y-14007222D02*
X9543991Y-13997698D01*
X9543991Y-13997698D02*
X9563039Y-13988174D01*
X9563039Y-13988174D02*
X9610658Y-13988174D01*
X9610658Y-13988174D02*
X9629705Y-13997698D01*
X9629705Y-13997698D02*
X9639229Y-14007222D01*
X9639229Y-14007222D02*
X9648753Y-14026269D01*
X9648753Y-14026269D02*
X9648753Y-14073888D01*
X9648753Y-14073888D02*
X9639229Y-14092936D01*
X9639229Y-14092936D02*
X9629705Y-14102460D01*
X9629705Y-14102460D02*
X9610658Y-14111984D01*
X9610658Y-14111984D02*
X9563039Y-14111984D01*
X9563039Y-14111984D02*
X9543991Y-14102460D01*
X9543991Y-14102460D02*
X9534467Y-14092936D01*
X9772563Y-13911984D02*
X9791610Y-13911984D01*
X9791610Y-13911984D02*
X9810658Y-13921508D01*
X9810658Y-13921508D02*
X9820182Y-13931031D01*
X9820182Y-13931031D02*
X9829705Y-13950079D01*
X9829705Y-13950079D02*
X9839229Y-13988174D01*
X9839229Y-13988174D02*
X9839229Y-14035793D01*
X9839229Y-14035793D02*
X9829705Y-14073888D01*
X9829705Y-14073888D02*
X9820182Y-14092936D01*
X9820182Y-14092936D02*
X9810658Y-14102460D01*
X9810658Y-14102460D02*
X9791610Y-14111984D01*
X9791610Y-14111984D02*
X9772563Y-14111984D01*
X9772563Y-14111984D02*
X9753515Y-14102460D01*
X9753515Y-14102460D02*
X9743991Y-14092936D01*
X9743991Y-14092936D02*
X9734467Y-14073888D01*
X9734467Y-14073888D02*
X9724944Y-14035793D01*
X9724944Y-14035793D02*
X9724944Y-13988174D01*
X9724944Y-13988174D02*
X9734467Y-13950079D01*
X9734467Y-13950079D02*
X9743991Y-13931031D01*
X9743991Y-13931031D02*
X9753515Y-13921508D01*
X9753515Y-13921508D02*
X9772563Y-13911984D01*
X9963039Y-13911984D02*
X9982086Y-13911984D01*
X9982086Y-13911984D02*
X10001134Y-13921508D01*
X10001134Y-13921508D02*
X10010658Y-13931031D01*
X10010658Y-13931031D02*
X10020182Y-13950079D01*
X10020182Y-13950079D02*
X10029705Y-13988174D01*
X10029705Y-13988174D02*
X10029705Y-14035793D01*
X10029705Y-14035793D02*
X10020182Y-14073888D01*
X10020182Y-14073888D02*
X10010658Y-14092936D01*
X10010658Y-14092936D02*
X10001134Y-14102460D01*
X10001134Y-14102460D02*
X9982086Y-14111984D01*
X9982086Y-14111984D02*
X9963039Y-14111984D01*
X9963039Y-14111984D02*
X9943991Y-14102460D01*
X9943991Y-14102460D02*
X9934467Y-14092936D01*
X9934467Y-14092936D02*
X9924944Y-14073888D01*
X9924944Y-14073888D02*
X9915420Y-14035793D01*
X9915420Y-14035793D02*
X9915420Y-13988174D01*
X9915420Y-13988174D02*
X9924944Y-13950079D01*
X9924944Y-13950079D02*
X9934467Y-13931031D01*
X9934467Y-13931031D02*
X9943991Y-13921508D01*
X9943991Y-13921508D02*
X9963039Y-13911984D01*
X10115420Y-14111984D02*
X10115420Y-13978650D01*
X10115420Y-13997698D02*
X10124944Y-13988174D01*
X10124944Y-13988174D02*
X10143991Y-13978650D01*
X10143991Y-13978650D02*
X10172563Y-13978650D01*
X10172563Y-13978650D02*
X10191610Y-13988174D01*
X10191610Y-13988174D02*
X10201134Y-14007222D01*
X10201134Y-14007222D02*
X10201134Y-14111984D01*
X10201134Y-14007222D02*
X10210658Y-13988174D01*
X10210658Y-13988174D02*
X10229705Y-13978650D01*
X10229705Y-13978650D02*
X10258277Y-13978650D01*
X10258277Y-13978650D02*
X10277325Y-13988174D01*
X10277325Y-13988174D02*
X10286848Y-14007222D01*
X10286848Y-14007222D02*
X10286848Y-14111984D01*
X10382086Y-14111984D02*
X10382086Y-13978650D01*
X10382086Y-13997698D02*
X10391610Y-13988174D01*
X10391610Y-13988174D02*
X10410658Y-13978650D01*
X10410658Y-13978650D02*
X10439229Y-13978650D01*
X10439229Y-13978650D02*
X10458277Y-13988174D01*
X10458277Y-13988174D02*
X10467801Y-14007222D01*
X10467801Y-14007222D02*
X10467801Y-14111984D01*
X10467801Y-14007222D02*
X10477325Y-13988174D01*
X10477325Y-13988174D02*
X10496372Y-13978650D01*
X10496372Y-13978650D02*
X10524944Y-13978650D01*
X10524944Y-13978650D02*
X10543991Y-13988174D01*
X10543991Y-13988174D02*
X10553515Y-14007222D01*
X10553515Y-14007222D02*
X10553515Y-14111984D01*
X10943991Y-13902460D02*
X10772563Y-14159603D01*
X11201134Y-13911984D02*
X11220182Y-13911984D01*
X11220182Y-13911984D02*
X11239229Y-13921508D01*
X11239229Y-13921508D02*
X11248753Y-13931031D01*
X11248753Y-13931031D02*
X11258277Y-13950079D01*
X11258277Y-13950079D02*
X11267801Y-13988174D01*
X11267801Y-13988174D02*
X11267801Y-14035793D01*
X11267801Y-14035793D02*
X11258277Y-14073888D01*
X11258277Y-14073888D02*
X11248753Y-14092936D01*
X11248753Y-14092936D02*
X11239229Y-14102460D01*
X11239229Y-14102460D02*
X11220182Y-14111984D01*
X11220182Y-14111984D02*
X11201134Y-14111984D01*
X11201134Y-14111984D02*
X11182087Y-14102460D01*
X11182087Y-14102460D02*
X11172563Y-14092936D01*
X11172563Y-14092936D02*
X11163039Y-14073888D01*
X11163039Y-14073888D02*
X11153515Y-14035793D01*
X11153515Y-14035793D02*
X11153515Y-13988174D01*
X11153515Y-13988174D02*
X11163039Y-13950079D01*
X11163039Y-13950079D02*
X11172563Y-13931031D01*
X11172563Y-13931031D02*
X11182087Y-13921508D01*
X11182087Y-13921508D02*
X11201134Y-13911984D01*
X11353515Y-14092936D02*
X11363039Y-14102460D01*
X11363039Y-14102460D02*
X11353515Y-14111984D01*
X11353515Y-14111984D02*
X11343991Y-14102460D01*
X11343991Y-14102460D02*
X11353515Y-14092936D01*
X11353515Y-14092936D02*
X11353515Y-14111984D01*
X11486848Y-13911984D02*
X11505896Y-13911984D01*
X11505896Y-13911984D02*
X11524944Y-13921508D01*
X11524944Y-13921508D02*
X11534467Y-13931031D01*
X11534467Y-13931031D02*
X11543991Y-13950079D01*
X11543991Y-13950079D02*
X11553515Y-13988174D01*
X11553515Y-13988174D02*
X11553515Y-14035793D01*
X11553515Y-14035793D02*
X11543991Y-14073888D01*
X11543991Y-14073888D02*
X11534467Y-14092936D01*
X11534467Y-14092936D02*
X11524944Y-14102460D01*
X11524944Y-14102460D02*
X11505896Y-14111984D01*
X11505896Y-14111984D02*
X11486848Y-14111984D01*
X11486848Y-14111984D02*
X11467801Y-14102460D01*
X11467801Y-14102460D02*
X11458277Y-14092936D01*
X11458277Y-14092936D02*
X11448753Y-14073888D01*
X11448753Y-14073888D02*
X11439229Y-14035793D01*
X11439229Y-14035793D02*
X11439229Y-13988174D01*
X11439229Y-13988174D02*
X11448753Y-13950079D01*
X11448753Y-13950079D02*
X11458277Y-13931031D01*
X11458277Y-13931031D02*
X11467801Y-13921508D01*
X11467801Y-13921508D02*
X11486848Y-13911984D01*
X11734467Y-13911984D02*
X11639229Y-13911984D01*
X11639229Y-13911984D02*
X11629706Y-14007222D01*
X11629706Y-14007222D02*
X11639229Y-13997698D01*
X11639229Y-13997698D02*
X11658277Y-13988174D01*
X11658277Y-13988174D02*
X11705896Y-13988174D01*
X11705896Y-13988174D02*
X11724944Y-13997698D01*
X11724944Y-13997698D02*
X11734467Y-14007222D01*
X11734467Y-14007222D02*
X11743991Y-14026269D01*
X11743991Y-14026269D02*
X11743991Y-14073888D01*
X11743991Y-14073888D02*
X11734467Y-14092936D01*
X11734467Y-14092936D02*
X11724944Y-14102460D01*
X11724944Y-14102460D02*
X11705896Y-14111984D01*
X11705896Y-14111984D02*
X11658277Y-14111984D01*
X11658277Y-14111984D02*
X11639229Y-14102460D01*
X11639229Y-14102460D02*
X11629706Y-14092936D01*
X11839229Y-14111984D02*
X11877325Y-14111984D01*
X11877325Y-14111984D02*
X11896372Y-14102460D01*
X11896372Y-14102460D02*
X11905896Y-14092936D01*
X11905896Y-14092936D02*
X11924944Y-14064365D01*
X11924944Y-14064365D02*
X11934467Y-14026269D01*
X11934467Y-14026269D02*
X11934467Y-13950079D01*
X11934467Y-13950079D02*
X11924944Y-13931031D01*
X11924944Y-13931031D02*
X11915420Y-13921508D01*
X11915420Y-13921508D02*
X11896372Y-13911984D01*
X11896372Y-13911984D02*
X11858277Y-13911984D01*
X11858277Y-13911984D02*
X11839229Y-13921508D01*
X11839229Y-13921508D02*
X11829706Y-13931031D01*
X11829706Y-13931031D02*
X11820182Y-13950079D01*
X11820182Y-13950079D02*
X11820182Y-13997698D01*
X11820182Y-13997698D02*
X11829706Y-14016746D01*
X11829706Y-14016746D02*
X11839229Y-14026269D01*
X11839229Y-14026269D02*
X11858277Y-14035793D01*
X11858277Y-14035793D02*
X11896372Y-14035793D01*
X11896372Y-14035793D02*
X11915420Y-14026269D01*
X11915420Y-14026269D02*
X11924944Y-14016746D01*
X11924944Y-14016746D02*
X11934467Y-13997698D01*
X12124944Y-14111984D02*
X12010658Y-14111984D01*
X12067801Y-14111984D02*
X12067801Y-13911984D01*
X12067801Y-13911984D02*
X12048753Y-13940555D01*
X12048753Y-13940555D02*
X12029706Y-13959603D01*
X12029706Y-13959603D02*
X12010658Y-13969127D01*
X12201134Y-13911984D02*
X12201134Y-13950079D01*
X12277325Y-13911984D02*
X12277325Y-13950079D01*
X12572563Y-14188174D02*
X12563039Y-14178650D01*
X12563039Y-14178650D02*
X12543991Y-14150079D01*
X12543991Y-14150079D02*
X12534468Y-14131031D01*
X12534468Y-14131031D02*
X12524944Y-14102460D01*
X12524944Y-14102460D02*
X12515420Y-14054841D01*
X12515420Y-14054841D02*
X12515420Y-14016746D01*
X12515420Y-14016746D02*
X12524944Y-13969127D01*
X12524944Y-13969127D02*
X12534468Y-13940555D01*
X12534468Y-13940555D02*
X12543991Y-13921508D01*
X12543991Y-13921508D02*
X12563039Y-13892936D01*
X12563039Y-13892936D02*
X12572563Y-13883412D01*
X12753515Y-14111984D02*
X12639229Y-14111984D01*
X12696372Y-14111984D02*
X12696372Y-13911984D01*
X12696372Y-13911984D02*
X12677325Y-13940555D01*
X12677325Y-13940555D02*
X12658277Y-13959603D01*
X12658277Y-13959603D02*
X12639229Y-13969127D01*
X12924944Y-13911984D02*
X12886848Y-13911984D01*
X12886848Y-13911984D02*
X12867801Y-13921508D01*
X12867801Y-13921508D02*
X12858277Y-13931031D01*
X12858277Y-13931031D02*
X12839229Y-13959603D01*
X12839229Y-13959603D02*
X12829706Y-13997698D01*
X12829706Y-13997698D02*
X12829706Y-14073888D01*
X12829706Y-14073888D02*
X12839229Y-14092936D01*
X12839229Y-14092936D02*
X12848753Y-14102460D01*
X12848753Y-14102460D02*
X12867801Y-14111984D01*
X12867801Y-14111984D02*
X12905896Y-14111984D01*
X12905896Y-14111984D02*
X12924944Y-14102460D01*
X12924944Y-14102460D02*
X12934468Y-14092936D01*
X12934468Y-14092936D02*
X12943991Y-14073888D01*
X12943991Y-14073888D02*
X12943991Y-14026269D01*
X12943991Y-14026269D02*
X12934468Y-14007222D01*
X12934468Y-14007222D02*
X12924944Y-13997698D01*
X12924944Y-13997698D02*
X12905896Y-13988174D01*
X12905896Y-13988174D02*
X12867801Y-13988174D01*
X12867801Y-13988174D02*
X12848753Y-13997698D01*
X12848753Y-13997698D02*
X12839229Y-14007222D01*
X12839229Y-14007222D02*
X12829706Y-14026269D01*
X13182087Y-14111984D02*
X13182087Y-13911984D01*
X13267801Y-14111984D02*
X13267801Y-14007222D01*
X13267801Y-14007222D02*
X13258277Y-13988174D01*
X13258277Y-13988174D02*
X13239230Y-13978650D01*
X13239230Y-13978650D02*
X13210658Y-13978650D01*
X13210658Y-13978650D02*
X13191610Y-13988174D01*
X13191610Y-13988174D02*
X13182087Y-13997698D01*
X13391610Y-14111984D02*
X13372563Y-14102460D01*
X13372563Y-14102460D02*
X13363039Y-14092936D01*
X13363039Y-14092936D02*
X13353515Y-14073888D01*
X13353515Y-14073888D02*
X13353515Y-14016746D01*
X13353515Y-14016746D02*
X13363039Y-13997698D01*
X13363039Y-13997698D02*
X13372563Y-13988174D01*
X13372563Y-13988174D02*
X13391610Y-13978650D01*
X13391610Y-13978650D02*
X13420182Y-13978650D01*
X13420182Y-13978650D02*
X13439230Y-13988174D01*
X13439230Y-13988174D02*
X13448753Y-13997698D01*
X13448753Y-13997698D02*
X13458277Y-14016746D01*
X13458277Y-14016746D02*
X13458277Y-14073888D01*
X13458277Y-14073888D02*
X13448753Y-14092936D01*
X13448753Y-14092936D02*
X13439230Y-14102460D01*
X13439230Y-14102460D02*
X13420182Y-14111984D01*
X13420182Y-14111984D02*
X13391610Y-14111984D01*
X13572563Y-14111984D02*
X13553515Y-14102460D01*
X13553515Y-14102460D02*
X13543991Y-14083412D01*
X13543991Y-14083412D02*
X13543991Y-13911984D01*
X13724944Y-14102460D02*
X13705896Y-14111984D01*
X13705896Y-14111984D02*
X13667801Y-14111984D01*
X13667801Y-14111984D02*
X13648753Y-14102460D01*
X13648753Y-14102460D02*
X13639230Y-14083412D01*
X13639230Y-14083412D02*
X13639230Y-14007222D01*
X13639230Y-14007222D02*
X13648753Y-13988174D01*
X13648753Y-13988174D02*
X13667801Y-13978650D01*
X13667801Y-13978650D02*
X13705896Y-13978650D01*
X13705896Y-13978650D02*
X13724944Y-13988174D01*
X13724944Y-13988174D02*
X13734468Y-14007222D01*
X13734468Y-14007222D02*
X13734468Y-14026269D01*
X13734468Y-14026269D02*
X13639230Y-14045317D01*
X13810658Y-14102460D02*
X13829706Y-14111984D01*
X13829706Y-14111984D02*
X13867801Y-14111984D01*
X13867801Y-14111984D02*
X13886849Y-14102460D01*
X13886849Y-14102460D02*
X13896372Y-14083412D01*
X13896372Y-14083412D02*
X13896372Y-14073888D01*
X13896372Y-14073888D02*
X13886849Y-14054841D01*
X13886849Y-14054841D02*
X13867801Y-14045317D01*
X13867801Y-14045317D02*
X13839230Y-14045317D01*
X13839230Y-14045317D02*
X13820182Y-14035793D01*
X13820182Y-14035793D02*
X13810658Y-14016746D01*
X13810658Y-14016746D02*
X13810658Y-14007222D01*
X13810658Y-14007222D02*
X13820182Y-13988174D01*
X13820182Y-13988174D02*
X13839230Y-13978650D01*
X13839230Y-13978650D02*
X13867801Y-13978650D01*
X13867801Y-13978650D02*
X13886849Y-13988174D01*
X13963039Y-14188174D02*
X13972563Y-14178650D01*
X13972563Y-14178650D02*
X13991611Y-14150079D01*
X13991611Y-14150079D02*
X14001134Y-14131031D01*
X14001134Y-14131031D02*
X14010658Y-14102460D01*
X14010658Y-14102460D02*
X14020182Y-14054841D01*
X14020182Y-14054841D02*
X14020182Y-14016746D01*
X14020182Y-14016746D02*
X14010658Y-13969127D01*
X14010658Y-13969127D02*
X14001134Y-13940555D01*
X14001134Y-13940555D02*
X13991611Y-13921508D01*
X13991611Y-13921508D02*
X13972563Y-13892936D01*
X13972563Y-13892936D02*
X13963039Y-13883412D01*
M02*
