M48
; DRILL file {KiCad 9.0.5} date 2025-10-09T15:15:55-0500
; FORMAT={-:-/ absolute / metric / decimal}
; #@! TF.CreationDate,2025-10-09T15:15:55-05:00
; #@! TF.GenerationSoftware,Kicad,Pcbnew,9.0.5
; #@! TF.FileFunction,Plated,1,2,PTH
FMAT,2
METRIC
; #@! TA.AperFunction,Plated,PTH,ComponentDrill
T1C0.800
; #@! TA.AperFunction,Plated,PTH,ComponentDrill
T2C1.000
; #@! TA.AperFunction,Plated,PTH,ComponentDrill
T3C1.500
%
G90
G05
T1
X122.88Y-41.07
X122.88Y-43.61
X122.88Y-46.15
X122.88Y-48.69
X122.88Y-51.23
X122.88Y-53.77
X122.88Y-56.31
X122.88Y-58.85
X122.88Y-61.39
X122.88Y-63.93
X122.88Y-66.47
X122.88Y-69.01
X138.12Y-41.07
X138.12Y-43.61
X138.12Y-46.15
X138.12Y-48.69
X138.12Y-51.23
X138.12Y-53.77
X138.12Y-56.31
X138.12Y-58.85
X138.12Y-61.39
X138.12Y-63.93
X138.12Y-66.47
X138.12Y-69.01
T2
X112.5Y-48.42
X112.5Y-50.96
X112.5Y-53.5
X112.5Y-56.04
X112.5Y-58.58
T3
X112.15Y-108.54
X118.5Y-106.0
X136.65Y-108.54
X143.0Y-106.0
X160.11Y-90.96
X160.15Y-67.04
X166.46Y-88.42
X166.5Y-64.5
X182.65Y-60.54
X183.15Y-86.04
X189.0Y-58.0
X189.5Y-83.5
X205.65Y-60.54
X206.11Y-85.96
X212.0Y-58.0
X212.46Y-83.42
M30
