%TF.GenerationSoftware,KiCad,Pcbnew,9.0.5*%
%TF.CreationDate,2025-10-09T15:15:47-05:00*%
%TF.ProjectId,arcade-controller,61726361-6465-42d6-936f-6e74726f6c6c,rev?*%
%TF.SameCoordinates,Original*%
%TF.FileFunction,Legend,Top*%
%TF.FilePolarity,Positive*%
%FSLAX46Y46*%
G04 Gerber Fmt 4.6, Leading zero omitted, Abs format (unit mm)*
G04 Created by KiCad (PCBNEW 9.0.5) date 2025-10-09 15:15:47*
%MOMM*%
%LPD*%
G01*
G04 APERTURE LIST*
%ADD10C,0.150000*%
%ADD11C,0.120000*%
G04 APERTURE END LIST*
D10*
X208126667Y-55613200D02*
X208269524Y-55660819D01*
X208269524Y-55660819D02*
X208507619Y-55660819D01*
X208507619Y-55660819D02*
X208602857Y-55613200D01*
X208602857Y-55613200D02*
X208650476Y-55565580D01*
X208650476Y-55565580D02*
X208698095Y-55470342D01*
X208698095Y-55470342D02*
X208698095Y-55375104D01*
X208698095Y-55375104D02*
X208650476Y-55279866D01*
X208650476Y-55279866D02*
X208602857Y-55232247D01*
X208602857Y-55232247D02*
X208507619Y-55184628D01*
X208507619Y-55184628D02*
X208317143Y-55137009D01*
X208317143Y-55137009D02*
X208221905Y-55089390D01*
X208221905Y-55089390D02*
X208174286Y-55041771D01*
X208174286Y-55041771D02*
X208126667Y-54946533D01*
X208126667Y-54946533D02*
X208126667Y-54851295D01*
X208126667Y-54851295D02*
X208174286Y-54756057D01*
X208174286Y-54756057D02*
X208221905Y-54708438D01*
X208221905Y-54708438D02*
X208317143Y-54660819D01*
X208317143Y-54660819D02*
X208555238Y-54660819D01*
X208555238Y-54660819D02*
X208698095Y-54708438D01*
X209031429Y-54660819D02*
X209269524Y-55660819D01*
X209269524Y-55660819D02*
X209460000Y-54946533D01*
X209460000Y-54946533D02*
X209650476Y-55660819D01*
X209650476Y-55660819D02*
X209888572Y-54660819D01*
X210793333Y-55660819D02*
X210221905Y-55660819D01*
X210507619Y-55660819D02*
X210507619Y-54660819D01*
X210507619Y-54660819D02*
X210412381Y-54803676D01*
X210412381Y-54803676D02*
X210317143Y-54898914D01*
X210317143Y-54898914D02*
X210221905Y-54946533D01*
X185126667Y-55613200D02*
X185269524Y-55660819D01*
X185269524Y-55660819D02*
X185507619Y-55660819D01*
X185507619Y-55660819D02*
X185602857Y-55613200D01*
X185602857Y-55613200D02*
X185650476Y-55565580D01*
X185650476Y-55565580D02*
X185698095Y-55470342D01*
X185698095Y-55470342D02*
X185698095Y-55375104D01*
X185698095Y-55375104D02*
X185650476Y-55279866D01*
X185650476Y-55279866D02*
X185602857Y-55232247D01*
X185602857Y-55232247D02*
X185507619Y-55184628D01*
X185507619Y-55184628D02*
X185317143Y-55137009D01*
X185317143Y-55137009D02*
X185221905Y-55089390D01*
X185221905Y-55089390D02*
X185174286Y-55041771D01*
X185174286Y-55041771D02*
X185126667Y-54946533D01*
X185126667Y-54946533D02*
X185126667Y-54851295D01*
X185126667Y-54851295D02*
X185174286Y-54756057D01*
X185174286Y-54756057D02*
X185221905Y-54708438D01*
X185221905Y-54708438D02*
X185317143Y-54660819D01*
X185317143Y-54660819D02*
X185555238Y-54660819D01*
X185555238Y-54660819D02*
X185698095Y-54708438D01*
X186031429Y-54660819D02*
X186269524Y-55660819D01*
X186269524Y-55660819D02*
X186460000Y-54946533D01*
X186460000Y-54946533D02*
X186650476Y-55660819D01*
X186650476Y-55660819D02*
X186888572Y-54660819D01*
X187221905Y-54756057D02*
X187269524Y-54708438D01*
X187269524Y-54708438D02*
X187364762Y-54660819D01*
X187364762Y-54660819D02*
X187602857Y-54660819D01*
X187602857Y-54660819D02*
X187698095Y-54708438D01*
X187698095Y-54708438D02*
X187745714Y-54756057D01*
X187745714Y-54756057D02*
X187793333Y-54851295D01*
X187793333Y-54851295D02*
X187793333Y-54946533D01*
X187793333Y-54946533D02*
X187745714Y-55089390D01*
X187745714Y-55089390D02*
X187174286Y-55660819D01*
X187174286Y-55660819D02*
X187793333Y-55660819D01*
X162626667Y-62113200D02*
X162769524Y-62160819D01*
X162769524Y-62160819D02*
X163007619Y-62160819D01*
X163007619Y-62160819D02*
X163102857Y-62113200D01*
X163102857Y-62113200D02*
X163150476Y-62065580D01*
X163150476Y-62065580D02*
X163198095Y-61970342D01*
X163198095Y-61970342D02*
X163198095Y-61875104D01*
X163198095Y-61875104D02*
X163150476Y-61779866D01*
X163150476Y-61779866D02*
X163102857Y-61732247D01*
X163102857Y-61732247D02*
X163007619Y-61684628D01*
X163007619Y-61684628D02*
X162817143Y-61637009D01*
X162817143Y-61637009D02*
X162721905Y-61589390D01*
X162721905Y-61589390D02*
X162674286Y-61541771D01*
X162674286Y-61541771D02*
X162626667Y-61446533D01*
X162626667Y-61446533D02*
X162626667Y-61351295D01*
X162626667Y-61351295D02*
X162674286Y-61256057D01*
X162674286Y-61256057D02*
X162721905Y-61208438D01*
X162721905Y-61208438D02*
X162817143Y-61160819D01*
X162817143Y-61160819D02*
X163055238Y-61160819D01*
X163055238Y-61160819D02*
X163198095Y-61208438D01*
X163531429Y-61160819D02*
X163769524Y-62160819D01*
X163769524Y-62160819D02*
X163960000Y-61446533D01*
X163960000Y-61446533D02*
X164150476Y-62160819D01*
X164150476Y-62160819D02*
X164388572Y-61160819D01*
X164674286Y-61160819D02*
X165293333Y-61160819D01*
X165293333Y-61160819D02*
X164960000Y-61541771D01*
X164960000Y-61541771D02*
X165102857Y-61541771D01*
X165102857Y-61541771D02*
X165198095Y-61589390D01*
X165198095Y-61589390D02*
X165245714Y-61637009D01*
X165245714Y-61637009D02*
X165293333Y-61732247D01*
X165293333Y-61732247D02*
X165293333Y-61970342D01*
X165293333Y-61970342D02*
X165245714Y-62065580D01*
X165245714Y-62065580D02*
X165198095Y-62113200D01*
X165198095Y-62113200D02*
X165102857Y-62160819D01*
X165102857Y-62160819D02*
X164817143Y-62160819D01*
X164817143Y-62160819D02*
X164721905Y-62113200D01*
X164721905Y-62113200D02*
X164674286Y-62065580D01*
X208586667Y-81033200D02*
X208729524Y-81080819D01*
X208729524Y-81080819D02*
X208967619Y-81080819D01*
X208967619Y-81080819D02*
X209062857Y-81033200D01*
X209062857Y-81033200D02*
X209110476Y-80985580D01*
X209110476Y-80985580D02*
X209158095Y-80890342D01*
X209158095Y-80890342D02*
X209158095Y-80795104D01*
X209158095Y-80795104D02*
X209110476Y-80699866D01*
X209110476Y-80699866D02*
X209062857Y-80652247D01*
X209062857Y-80652247D02*
X208967619Y-80604628D01*
X208967619Y-80604628D02*
X208777143Y-80557009D01*
X208777143Y-80557009D02*
X208681905Y-80509390D01*
X208681905Y-80509390D02*
X208634286Y-80461771D01*
X208634286Y-80461771D02*
X208586667Y-80366533D01*
X208586667Y-80366533D02*
X208586667Y-80271295D01*
X208586667Y-80271295D02*
X208634286Y-80176057D01*
X208634286Y-80176057D02*
X208681905Y-80128438D01*
X208681905Y-80128438D02*
X208777143Y-80080819D01*
X208777143Y-80080819D02*
X209015238Y-80080819D01*
X209015238Y-80080819D02*
X209158095Y-80128438D01*
X209491429Y-80080819D02*
X209729524Y-81080819D01*
X209729524Y-81080819D02*
X209920000Y-80366533D01*
X209920000Y-80366533D02*
X210110476Y-81080819D01*
X210110476Y-81080819D02*
X210348572Y-80080819D01*
X211158095Y-80414152D02*
X211158095Y-81080819D01*
X210920000Y-80033200D02*
X210681905Y-80747485D01*
X210681905Y-80747485D02*
X211300952Y-80747485D01*
X185626667Y-81113200D02*
X185769524Y-81160819D01*
X185769524Y-81160819D02*
X186007619Y-81160819D01*
X186007619Y-81160819D02*
X186102857Y-81113200D01*
X186102857Y-81113200D02*
X186150476Y-81065580D01*
X186150476Y-81065580D02*
X186198095Y-80970342D01*
X186198095Y-80970342D02*
X186198095Y-80875104D01*
X186198095Y-80875104D02*
X186150476Y-80779866D01*
X186150476Y-80779866D02*
X186102857Y-80732247D01*
X186102857Y-80732247D02*
X186007619Y-80684628D01*
X186007619Y-80684628D02*
X185817143Y-80637009D01*
X185817143Y-80637009D02*
X185721905Y-80589390D01*
X185721905Y-80589390D02*
X185674286Y-80541771D01*
X185674286Y-80541771D02*
X185626667Y-80446533D01*
X185626667Y-80446533D02*
X185626667Y-80351295D01*
X185626667Y-80351295D02*
X185674286Y-80256057D01*
X185674286Y-80256057D02*
X185721905Y-80208438D01*
X185721905Y-80208438D02*
X185817143Y-80160819D01*
X185817143Y-80160819D02*
X186055238Y-80160819D01*
X186055238Y-80160819D02*
X186198095Y-80208438D01*
X186531429Y-80160819D02*
X186769524Y-81160819D01*
X186769524Y-81160819D02*
X186960000Y-80446533D01*
X186960000Y-80446533D02*
X187150476Y-81160819D01*
X187150476Y-81160819D02*
X187388572Y-80160819D01*
X188245714Y-80160819D02*
X187769524Y-80160819D01*
X187769524Y-80160819D02*
X187721905Y-80637009D01*
X187721905Y-80637009D02*
X187769524Y-80589390D01*
X187769524Y-80589390D02*
X187864762Y-80541771D01*
X187864762Y-80541771D02*
X188102857Y-80541771D01*
X188102857Y-80541771D02*
X188198095Y-80589390D01*
X188198095Y-80589390D02*
X188245714Y-80637009D01*
X188245714Y-80637009D02*
X188293333Y-80732247D01*
X188293333Y-80732247D02*
X188293333Y-80970342D01*
X188293333Y-80970342D02*
X188245714Y-81065580D01*
X188245714Y-81065580D02*
X188198095Y-81113200D01*
X188198095Y-81113200D02*
X188102857Y-81160819D01*
X188102857Y-81160819D02*
X187864762Y-81160819D01*
X187864762Y-81160819D02*
X187769524Y-81113200D01*
X187769524Y-81113200D02*
X187721905Y-81065580D01*
X162586667Y-86033200D02*
X162729524Y-86080819D01*
X162729524Y-86080819D02*
X162967619Y-86080819D01*
X162967619Y-86080819D02*
X163062857Y-86033200D01*
X163062857Y-86033200D02*
X163110476Y-85985580D01*
X163110476Y-85985580D02*
X163158095Y-85890342D01*
X163158095Y-85890342D02*
X163158095Y-85795104D01*
X163158095Y-85795104D02*
X163110476Y-85699866D01*
X163110476Y-85699866D02*
X163062857Y-85652247D01*
X163062857Y-85652247D02*
X162967619Y-85604628D01*
X162967619Y-85604628D02*
X162777143Y-85557009D01*
X162777143Y-85557009D02*
X162681905Y-85509390D01*
X162681905Y-85509390D02*
X162634286Y-85461771D01*
X162634286Y-85461771D02*
X162586667Y-85366533D01*
X162586667Y-85366533D02*
X162586667Y-85271295D01*
X162586667Y-85271295D02*
X162634286Y-85176057D01*
X162634286Y-85176057D02*
X162681905Y-85128438D01*
X162681905Y-85128438D02*
X162777143Y-85080819D01*
X162777143Y-85080819D02*
X163015238Y-85080819D01*
X163015238Y-85080819D02*
X163158095Y-85128438D01*
X163491429Y-85080819D02*
X163729524Y-86080819D01*
X163729524Y-86080819D02*
X163920000Y-85366533D01*
X163920000Y-85366533D02*
X164110476Y-86080819D01*
X164110476Y-86080819D02*
X164348572Y-85080819D01*
X165158095Y-85080819D02*
X164967619Y-85080819D01*
X164967619Y-85080819D02*
X164872381Y-85128438D01*
X164872381Y-85128438D02*
X164824762Y-85176057D01*
X164824762Y-85176057D02*
X164729524Y-85318914D01*
X164729524Y-85318914D02*
X164681905Y-85509390D01*
X164681905Y-85509390D02*
X164681905Y-85890342D01*
X164681905Y-85890342D02*
X164729524Y-85985580D01*
X164729524Y-85985580D02*
X164777143Y-86033200D01*
X164777143Y-86033200D02*
X164872381Y-86080819D01*
X164872381Y-86080819D02*
X165062857Y-86080819D01*
X165062857Y-86080819D02*
X165158095Y-86033200D01*
X165158095Y-86033200D02*
X165205714Y-85985580D01*
X165205714Y-85985580D02*
X165253333Y-85890342D01*
X165253333Y-85890342D02*
X165253333Y-85652247D01*
X165253333Y-85652247D02*
X165205714Y-85557009D01*
X165205714Y-85557009D02*
X165158095Y-85509390D01*
X165158095Y-85509390D02*
X165062857Y-85461771D01*
X165062857Y-85461771D02*
X164872381Y-85461771D01*
X164872381Y-85461771D02*
X164777143Y-85509390D01*
X164777143Y-85509390D02*
X164729524Y-85557009D01*
X164729524Y-85557009D02*
X164681905Y-85652247D01*
X114626667Y-103613200D02*
X114769524Y-103660819D01*
X114769524Y-103660819D02*
X115007619Y-103660819D01*
X115007619Y-103660819D02*
X115102857Y-103613200D01*
X115102857Y-103613200D02*
X115150476Y-103565580D01*
X115150476Y-103565580D02*
X115198095Y-103470342D01*
X115198095Y-103470342D02*
X115198095Y-103375104D01*
X115198095Y-103375104D02*
X115150476Y-103279866D01*
X115150476Y-103279866D02*
X115102857Y-103232247D01*
X115102857Y-103232247D02*
X115007619Y-103184628D01*
X115007619Y-103184628D02*
X114817143Y-103137009D01*
X114817143Y-103137009D02*
X114721905Y-103089390D01*
X114721905Y-103089390D02*
X114674286Y-103041771D01*
X114674286Y-103041771D02*
X114626667Y-102946533D01*
X114626667Y-102946533D02*
X114626667Y-102851295D01*
X114626667Y-102851295D02*
X114674286Y-102756057D01*
X114674286Y-102756057D02*
X114721905Y-102708438D01*
X114721905Y-102708438D02*
X114817143Y-102660819D01*
X114817143Y-102660819D02*
X115055238Y-102660819D01*
X115055238Y-102660819D02*
X115198095Y-102708438D01*
X115531429Y-102660819D02*
X115769524Y-103660819D01*
X115769524Y-103660819D02*
X115960000Y-102946533D01*
X115960000Y-102946533D02*
X116150476Y-103660819D01*
X116150476Y-103660819D02*
X116388572Y-102660819D01*
X116674286Y-102660819D02*
X117340952Y-102660819D01*
X117340952Y-102660819D02*
X116912381Y-103660819D01*
X139126667Y-103613200D02*
X139269524Y-103660819D01*
X139269524Y-103660819D02*
X139507619Y-103660819D01*
X139507619Y-103660819D02*
X139602857Y-103613200D01*
X139602857Y-103613200D02*
X139650476Y-103565580D01*
X139650476Y-103565580D02*
X139698095Y-103470342D01*
X139698095Y-103470342D02*
X139698095Y-103375104D01*
X139698095Y-103375104D02*
X139650476Y-103279866D01*
X139650476Y-103279866D02*
X139602857Y-103232247D01*
X139602857Y-103232247D02*
X139507619Y-103184628D01*
X139507619Y-103184628D02*
X139317143Y-103137009D01*
X139317143Y-103137009D02*
X139221905Y-103089390D01*
X139221905Y-103089390D02*
X139174286Y-103041771D01*
X139174286Y-103041771D02*
X139126667Y-102946533D01*
X139126667Y-102946533D02*
X139126667Y-102851295D01*
X139126667Y-102851295D02*
X139174286Y-102756057D01*
X139174286Y-102756057D02*
X139221905Y-102708438D01*
X139221905Y-102708438D02*
X139317143Y-102660819D01*
X139317143Y-102660819D02*
X139555238Y-102660819D01*
X139555238Y-102660819D02*
X139698095Y-102708438D01*
X140031429Y-102660819D02*
X140269524Y-103660819D01*
X140269524Y-103660819D02*
X140460000Y-102946533D01*
X140460000Y-102946533D02*
X140650476Y-103660819D01*
X140650476Y-103660819D02*
X140888572Y-102660819D01*
X141412381Y-103089390D02*
X141317143Y-103041771D01*
X141317143Y-103041771D02*
X141269524Y-102994152D01*
X141269524Y-102994152D02*
X141221905Y-102898914D01*
X141221905Y-102898914D02*
X141221905Y-102851295D01*
X141221905Y-102851295D02*
X141269524Y-102756057D01*
X141269524Y-102756057D02*
X141317143Y-102708438D01*
X141317143Y-102708438D02*
X141412381Y-102660819D01*
X141412381Y-102660819D02*
X141602857Y-102660819D01*
X141602857Y-102660819D02*
X141698095Y-102708438D01*
X141698095Y-102708438D02*
X141745714Y-102756057D01*
X141745714Y-102756057D02*
X141793333Y-102851295D01*
X141793333Y-102851295D02*
X141793333Y-102898914D01*
X141793333Y-102898914D02*
X141745714Y-102994152D01*
X141745714Y-102994152D02*
X141698095Y-103041771D01*
X141698095Y-103041771D02*
X141602857Y-103089390D01*
X141602857Y-103089390D02*
X141412381Y-103089390D01*
X141412381Y-103089390D02*
X141317143Y-103137009D01*
X141317143Y-103137009D02*
X141269524Y-103184628D01*
X141269524Y-103184628D02*
X141221905Y-103279866D01*
X141221905Y-103279866D02*
X141221905Y-103470342D01*
X141221905Y-103470342D02*
X141269524Y-103565580D01*
X141269524Y-103565580D02*
X141317143Y-103613200D01*
X141317143Y-103613200D02*
X141412381Y-103660819D01*
X141412381Y-103660819D02*
X141602857Y-103660819D01*
X141602857Y-103660819D02*
X141698095Y-103613200D01*
X141698095Y-103613200D02*
X141745714Y-103565580D01*
X141745714Y-103565580D02*
X141793333Y-103470342D01*
X141793333Y-103470342D02*
X141793333Y-103279866D01*
X141793333Y-103279866D02*
X141745714Y-103184628D01*
X141745714Y-103184628D02*
X141698095Y-103137009D01*
X141698095Y-103137009D02*
X141602857Y-103089390D01*
X129738095Y-73544819D02*
X129738095Y-74354342D01*
X129738095Y-74354342D02*
X129785714Y-74449580D01*
X129785714Y-74449580D02*
X129833333Y-74497200D01*
X129833333Y-74497200D02*
X129928571Y-74544819D01*
X129928571Y-74544819D02*
X130119047Y-74544819D01*
X130119047Y-74544819D02*
X130214285Y-74497200D01*
X130214285Y-74497200D02*
X130261904Y-74449580D01*
X130261904Y-74449580D02*
X130309523Y-74354342D01*
X130309523Y-74354342D02*
X130309523Y-73544819D01*
X131309523Y-74544819D02*
X130738095Y-74544819D01*
X131023809Y-74544819D02*
X131023809Y-73544819D01*
X131023809Y-73544819D02*
X130928571Y-73687676D01*
X130928571Y-73687676D02*
X130833333Y-73782914D01*
X130833333Y-73782914D02*
X130738095Y-73830533D01*
X112166666Y-60804819D02*
X112166666Y-61519104D01*
X112166666Y-61519104D02*
X112119047Y-61661961D01*
X112119047Y-61661961D02*
X112023809Y-61757200D01*
X112023809Y-61757200D02*
X111880952Y-61804819D01*
X111880952Y-61804819D02*
X111785714Y-61804819D01*
X113166666Y-61804819D02*
X112595238Y-61804819D01*
X112880952Y-61804819D02*
X112880952Y-60804819D01*
X112880952Y-60804819D02*
X112785714Y-60947676D01*
X112785714Y-60947676D02*
X112690476Y-61042914D01*
X112690476Y-61042914D02*
X112595238Y-61090533D01*
X218738095Y-39804819D02*
X218738095Y-38804819D01*
X218738095Y-39281009D02*
X219309523Y-39281009D01*
X219309523Y-39804819D02*
X219309523Y-38804819D01*
X220214285Y-39138152D02*
X220214285Y-39804819D01*
X219976190Y-38757200D02*
X219738095Y-39471485D01*
X219738095Y-39471485D02*
X220357142Y-39471485D01*
X98238095Y-39804819D02*
X98238095Y-38804819D01*
X98238095Y-39281009D02*
X98809523Y-39281009D01*
X98809523Y-39804819D02*
X98809523Y-38804819D01*
X99190476Y-38804819D02*
X99809523Y-38804819D01*
X99809523Y-38804819D02*
X99476190Y-39185771D01*
X99476190Y-39185771D02*
X99619047Y-39185771D01*
X99619047Y-39185771D02*
X99714285Y-39233390D01*
X99714285Y-39233390D02*
X99761904Y-39281009D01*
X99761904Y-39281009D02*
X99809523Y-39376247D01*
X99809523Y-39376247D02*
X99809523Y-39614342D01*
X99809523Y-39614342D02*
X99761904Y-39709580D01*
X99761904Y-39709580D02*
X99714285Y-39757200D01*
X99714285Y-39757200D02*
X99619047Y-39804819D01*
X99619047Y-39804819D02*
X99333333Y-39804819D01*
X99333333Y-39804819D02*
X99238095Y-39757200D01*
X99238095Y-39757200D02*
X99190476Y-39709580D01*
X98238095Y-114954819D02*
X98238095Y-113954819D01*
X98238095Y-114431009D02*
X98809523Y-114431009D01*
X98809523Y-114954819D02*
X98809523Y-113954819D01*
X99238095Y-114050057D02*
X99285714Y-114002438D01*
X99285714Y-114002438D02*
X99380952Y-113954819D01*
X99380952Y-113954819D02*
X99619047Y-113954819D01*
X99619047Y-113954819D02*
X99714285Y-114002438D01*
X99714285Y-114002438D02*
X99761904Y-114050057D01*
X99761904Y-114050057D02*
X99809523Y-114145295D01*
X99809523Y-114145295D02*
X99809523Y-114240533D01*
X99809523Y-114240533D02*
X99761904Y-114383390D01*
X99761904Y-114383390D02*
X99190476Y-114954819D01*
X99190476Y-114954819D02*
X99809523Y-114954819D01*
X218738095Y-114954819D02*
X218738095Y-113954819D01*
X218738095Y-114431009D02*
X219309523Y-114431009D01*
X219309523Y-114954819D02*
X219309523Y-113954819D01*
X220309523Y-114954819D02*
X219738095Y-114954819D01*
X220023809Y-114954819D02*
X220023809Y-113954819D01*
X220023809Y-113954819D02*
X219928571Y-114097676D01*
X219928571Y-114097676D02*
X219833333Y-114192914D01*
X219833333Y-114192914D02*
X219738095Y-114240533D01*
D11*
%TO.C,SW1*%
X216445000Y-70065000D02*
X202475000Y-70065000D01*
X216445000Y-56095000D02*
X216445000Y-70065000D01*
X202475000Y-70065000D02*
X202475000Y-56095000D01*
X202475000Y-56095000D02*
X216445000Y-56095000D01*
%TO.C,SW2*%
X193445000Y-70065000D02*
X179475000Y-70065000D01*
X193445000Y-56095000D02*
X193445000Y-70065000D01*
X179475000Y-70065000D02*
X179475000Y-56095000D01*
X179475000Y-56095000D02*
X193445000Y-56095000D01*
%TO.C,SW3*%
X170945000Y-76565000D02*
X156975000Y-76565000D01*
X170945000Y-62595000D02*
X170945000Y-76565000D01*
X156975000Y-76565000D02*
X156975000Y-62595000D01*
X156975000Y-62595000D02*
X170945000Y-62595000D01*
%TO.C,SW4*%
X216905000Y-95485000D02*
X202935000Y-95485000D01*
X216905000Y-81515000D02*
X216905000Y-95485000D01*
X202935000Y-95485000D02*
X202935000Y-81515000D01*
X202935000Y-81515000D02*
X216905000Y-81515000D01*
%TO.C,SW5*%
X193945000Y-95565000D02*
X179975000Y-95565000D01*
X193945000Y-81595000D02*
X193945000Y-95565000D01*
X179975000Y-95565000D02*
X179975000Y-81595000D01*
X179975000Y-81595000D02*
X193945000Y-81595000D01*
%TO.C,SW6*%
X170905000Y-100485000D02*
X156935000Y-100485000D01*
X170905000Y-86515000D02*
X170905000Y-100485000D01*
X156935000Y-100485000D02*
X156935000Y-86515000D01*
X156935000Y-86515000D02*
X170905000Y-86515000D01*
%TO.C,SW7*%
X122945000Y-118065000D02*
X108975000Y-118065000D01*
X122945000Y-104095000D02*
X122945000Y-118065000D01*
X108975000Y-118065000D02*
X108975000Y-104095000D01*
X108975000Y-104095000D02*
X122945000Y-104095000D01*
%TO.C,SW8*%
X147445000Y-118065000D02*
X133475000Y-118065000D01*
X147445000Y-104095000D02*
X147445000Y-118065000D01*
X133475000Y-118065000D02*
X133475000Y-104095000D01*
X133475000Y-104095000D02*
X147445000Y-104095000D01*
%TO.C,U1*%
X121483000Y-37260000D02*
X121480000Y-70280000D01*
X121483000Y-70280000D02*
X136850000Y-70280000D01*
X124150000Y-39800000D02*
X121480000Y-39800000D01*
X124150000Y-42340000D02*
X121480000Y-42340000D01*
X124150000Y-70280000D02*
X121480000Y-70280000D01*
X124150000Y-70280000D02*
X124150000Y-39800000D01*
X126563000Y-34720000D02*
X126563000Y-37260000D01*
X126563000Y-37260000D02*
X121483000Y-37260000D01*
X134437000Y-34720000D02*
X126563000Y-34720000D01*
X134437000Y-34720000D02*
X134437000Y-37260000D01*
X136850000Y-39800000D02*
X139520000Y-39800000D01*
X136850000Y-67740000D02*
X136850000Y-39800000D01*
X136850000Y-67740000D02*
X136850000Y-70280000D01*
X136850000Y-70280000D02*
X139517000Y-70280000D01*
X139517000Y-37260000D02*
X134437000Y-37260000D01*
X139517000Y-70280000D02*
X139517000Y-37260000D01*
%TO.C,J1*%
X113830000Y-47090000D02*
X111170000Y-47090000D01*
X113830000Y-57310000D02*
X113830000Y-47090000D01*
X113830000Y-57310000D02*
X111170000Y-57310000D01*
X112500000Y-59910000D02*
X111170000Y-59910000D01*
X111170000Y-57310000D02*
X111170000Y-47090000D01*
X111170000Y-59910000D02*
X111170000Y-58580000D01*
%TD*%
M02*
